<svg id="SvgjsSvg1001" width="288" height="288" xmlns="http://www.w3.org/2000/svg" version="1.1" xmlns:xlink="http://www.w3.org/1999/xlink" xmlns:svgjs="http://svgjs.com/svgjs"><defs id="SvgjsDefs1002"></defs><g id="SvgjsG1008"><svg xmlns="http://www.w3.org/2000/svg" enable-background="new 0 0 800 800" viewBox="0 0 800 800" width="288" height="288"><path fill="#000000" d="M53.68 786.94C57.93 793.81 65.44 798 73.52 798h652.97c8.08 0 15.59-4.19 19.84-11.06 4.25-6.87 4.63-15.46 1.02-22.69l-46.64-93.28c-3.95-7.9-12.02-12.89-20.86-12.89h-25.76l-35.13-317.59c-6.57-59.13-56.39-103.73-115.89-103.73H296.93c-59.5 0-109.32 44.59-115.89 103.74l-35.13 317.59h-25.76c-8.83 0-16.91 4.99-20.86 12.89l-46.64 93.28C49.04 771.48 49.43 780.07 53.68 786.94L53.68 786.94zM227.4 345.63c3.94-35.48 33.83-62.24 69.53-62.24h206.14c35.7 0 65.6 26.75 69.53 62.22l34.56 312.46H423.32V512.59c27.14-9.63 46.64-35.55 46.64-65.95 0-38.57-31.39-69.96-69.96-69.96s-69.96 31.39-69.96 69.96c0 30.41 19.5 56.33 46.64 65.95v145.49H192.84L227.4 345.63zM400 469.96c-12.86 0-23.32-10.46-23.32-23.32 0-12.86 10.46-23.32 23.32-23.32 12.86 0 23.32 10.46 23.32 23.32C423.32 459.5 412.86 469.96 400 469.96L400 469.96zM134.57 704.72h530.86l23.32 46.64h-577.5L134.57 704.72zM423.32 120.16V25.32C423.32 12.44 412.88 2 400 2c-12.88 0-23.32 10.44-23.32 23.32v94.84c0 12.88 10.44 23.32 23.32 23.32C412.88 143.48 423.32 133.04 423.32 120.16L423.32 120.16zM647.35 232.27l65.96-65.96c9.11-9.11 9.11-23.87 0-32.98-9.11-9.11-23.87-9.11-32.98 0l-65.96 65.96c-9.11 9.11-9.11 23.87 0 32.98C623.48 241.38 638.24 241.38 647.35 232.27L647.35 232.27zM185.63 232.27c9.11-9.11 9.11-23.87 0-32.98l-65.96-65.96c-9.1-9.1-23.87-9.11-32.98 0-9.11 9.11-9.11 23.87 0 32.98l65.96 65.96C161.76 241.38 176.52 241.38 185.63 232.27L185.63 232.27zM283.98 166.55c11.9-4.93 17.55-18.57 12.62-30.47L260.9 49.9c-4.92-11.9-18.57-17.55-30.47-12.62-11.89 4.93-17.55 18.57-12.62 30.47l35.69 86.18C258.43 165.82 272.07 171.49 283.98 166.55L283.98 166.55zM516.02 166.55c11.94 4.95 25.55-.77 30.47-12.62l35.69-86.18c4.93-11.9-.72-25.54-12.62-30.47-11.9-4.92-25.55.72-30.47 12.62l-35.7 86.18C498.46 147.99 504.12 161.62 516.02 166.55L516.02 166.55zM516.02 166.55" class="colorfff svgShape"></path></svg></g></svg>