<svg id="SvgjsSvg1011" width="288" height="288" xmlns="http://www.w3.org/2000/svg" version="1.1" xmlns:xlink="http://www.w3.org/1999/xlink" xmlns:svgjs="http://svgjs.com/svgjs"><defs id="SvgjsDefs1012"></defs><g id="SvgjsG1013"><svg xmlns="http://www.w3.org/2000/svg" enable-background="new 0 0 800 800" viewBox="0 0 800 800" width="288" height="288"><path fill="#000000" d="M780.34 714.77H741V360.65c0-7.25-5.87-13.12-13.11-13.12H72.11c-7.24 0-13.11 5.87-13.11 13.12v354.12H19.66c-7.25 0-13.12 5.87-13.12 13.12 0 7.25 5.86 13.11 13.12 13.11h52.46 78.69H649.2h78.69 52.46c7.25 0 13.12-5.87 13.12-13.11C793.46 720.64 787.6 714.77 780.34 714.77zM636.08 714.77H163.92V426.23h472.15V714.77zM785.7 230.65L405.35 60.15c-3.4-1.54-7.32-1.54-10.72 0L14.27 230.65c-4.68 2.1-7.73 6.79-7.73 11.96v65.58c0 7.25 5.86 13.12 13.12 13.12h760.69c7.25 0 13.12-5.87 13.12-13.12v-65.58C793.46 237.44 790.41 232.75 785.7 230.65z" class="colorfff svgShape"></path><path fill="#000000" d="M229.5 504.92H570.5c7.24 0 13.11-5.87 13.11-13.11 0-7.25-5.87-13.12-13.11-13.12H229.5c-7.24 0-13.11 5.87-13.11 13.12C216.39 499.06 222.25 504.92 229.5 504.92zM229.5 583.62H570.5c7.24 0 13.11-5.87 13.11-13.11 0-7.25-5.87-13.12-13.11-13.12H229.5c-7.24 0-13.11 5.87-13.11 13.12C216.39 577.75 222.25 583.62 229.5 583.62zM229.5 662.31H570.5c7.24 0 13.11-5.87 13.11-13.11 0-7.25-5.87-13.12-13.11-13.12H229.5c-7.24 0-13.11 5.87-13.11 13.12C216.39 656.44 222.25 662.31 229.5 662.31z" class="colorfff svgShape"></path></svg></g></svg>