<svg xmlns="http://www.w3.org/2000/svg" width="123" height="122"><g fill="#000" fill-rule="evenodd"><path d="M58.765 100.637a6.528 6.528 0 0 1-1.433.819 51.992 51.992 0 0 1-8.5 3.686 55.045 55.045 0 0 1-8.088 2.048 41.435 41.435 0 0 1-6.143.512c-2.355 0-4.812 0-7.166-.1s-4.607-.2-6.859-.41a28.94 28.94 0 0 1-8.19-1.945.1.1 0 0 1 .1-.1l7.064-7.064a45.484 45.484 0 0 1 7.985-6.04c.117-.126.256-.23.41-.307l-1.843-.614a50.034 50.034 0 0 1-14.538-8.293 44.631 44.631 0 0 1-9.619-10.96A136.505 136.505 0 0 1 0 68.388v-.1c.187-.112.397-.18.614-.2a34.1 34.1 0 0 1 9.623-1.843c2.32-.12 4.646-.087 6.962.1 2.445.217 4.873.593 7.269 1.126.554.1 1.102.237 1.638.41a102.37 102.37 0 0 1-11.057-21.914 90.22 90.22 0 0 1-5.221-23.956 66.562 66.562 0 0 1 8.8 3.686A85.44 85.44 0 0 1 47.81 49.96v-.512c0-3.686 0-7.269.307-10.954.2-2.252.41-4.5.717-6.655.41-3.071 1.024-6.143 1.74-9.214a71.9 71.9 0 0 1 4.1-11.978 43.438 43.438 0 0 1 4.1-7.371A24.048 24.048 0 0 1 61.119 0h.1a33.5 33.5 0 0 1 4.4 6.347 65.821 65.821 0 0 1 5.119 12.081c.97 3.118 1.726 6.3 2.262 9.521.41 2.457.717 5.016 1.024 7.576.46 4.66.665 9.343.614 14.026v.307c10.033-12.8 22.523-22.318 37.88-27.847a87.194 87.194 0 0 1-5.221 23.956 100.045 100.045 0 0 1-11.062 21.909 2 2 0 0 1 .717-.1c2.048-.41 3.993-.819 6.04-1.126 3.01-.496 6.07-.634 9.112-.41 3.312.157 6.586.778 9.726 1.843.1 0 .2.1.307.1a.317.317 0 0 1 .2.1c-.41.819-.819 1.638-1.331 2.457a42.322 42.322 0 0 1-8.293 10.238 46.548 46.548 0 0 1-10.545 7.371 60.652 60.652 0 0 1-7.468 3.176c-.1 0-.2.1-.307.1l1.536.921a47.286 47.286 0 0 1 7.985 6.347l5.836 5.836c.126.117.23.256.307.41-1.331.41-2.559.819-3.788 1.126a32.73 32.73 0 0 1-6.347.921c-4.1.307-8.088.41-12.183.41a37.9 37.9 0 0 1-10.75-1.536 55.485 55.485 0 0 1-10.647-3.993l-2.15-1.229c-.1-.1-.2-.1-.41-.2l-5.017-.001Zm-43.716-71.05-.1.1c4.4 18.53 12.49 35.013 26.516 48.322-.8-.417-1.62-.793-2.457-1.126-1.229-.512-2.457-.921-3.788-1.433a66.593 66.593 0 0 0-6.35-2.25 47.313 47.313 0 0 0-7.576-1.536 30.548 30.548 0 0 0-4.3-.41c-2.048 0-4.2.1-6.245.1-.614 0-1.229.2-1.945.2a.376.376 0 0 1 .1.307c.614.819 1.229 1.536 1.843 2.355a41.948 41.948 0 0 0 5.324 5.119 48.713 48.713 0 0 0 8.293 5.528A62.128 62.128 0 0 0 43 90.911c.2 0 .41.1.614.1.204 0 .307.1.41.1-8.5 1.433-15.664 5.528-22.216 11.057a.317.317 0 0 0 .2.1c1.433.1 2.867.307 4.4.41 2.559.1 5.119 0 7.678 0a33.092 33.092 0 0 0 7.064-.717 54.007 54.007 0 0 0 7.883-2.457 45.192 45.192 0 0 0 11.978-6.45c.15.161.322.3.512.41a31.308 31.308 0 0 0 5.528 3.481 68.327 68.327 0 0 0 11.466 4.5 31.789 31.789 0 0 0 7.576 1.331c4.1 0 8.293.2 12.388-.1.512 0 1.126-.2 1.638-.2v-.1c-.717-.614-1.331-1.126-2.048-1.74a53.478 53.478 0 0 0-12.381-7.165 29.816 29.816 0 0 0-7.883-2.048c.1 0 .2-.1.307-.1 1.843-.41 3.788-.717 5.631-1.126a55.1 55.1 0 0 0 12.695-4.5 48.2 48.2 0 0 0 11.978-8.297 31.769 31.769 0 0 0 4.607-5.221c.1-.1.1-.2.2-.307-1.331-.1-2.559-.307-3.788-.41a50.856 50.856 0 0 0-18.428 2.764c-1.638.512-3.276 1.229-4.812 1.843a32.4 32.4 0 0 0-5.119 2.252c-.1.1-.2.1-.41.2l.1.1c.512-.614 1.024-1.126 1.536-1.74 1.433-1.536 2.867-3.174 4.3-4.709a76.431 76.431 0 0 0 6.04-7.883 105.225 105.225 0 0 0 7.781-14.128 107.461 107.461 0 0 0 6.245-18.326 9.585 9.585 0 0 1 .41-1.638.1.1 0 0 1-.1-.1C89.273 40.03 75.657 53.851 66.852 72.381v-.307c.307-1.74.614-3.378.921-5.119A92.65 92.65 0 0 0 69 57.638c.2-2.355.307-4.812.41-7.166A85.875 85.875 0 0 0 69 39.006c-.2-2.15-.512-4.3-.819-6.45-.41-2.457-.921-4.914-1.433-7.371a75.545 75.545 0 0 0-4.914-14.742 35.336 35.336 0 0 1-.921-1.945c-.1.2-.2.307-.2.41a72.533 72.533 0 0 0-5.122 14.332 83.674 83.674 0 0 0-2.457 13.411c-.2 2.355-.512 4.607-.614 6.962a82.691 82.691 0 0 0 .1 11.262c.2 2.662.41 5.324.819 7.985.307 2.15.717 4.3 1.024 6.552.22.98.391 1.971.512 2.969-.1-.1-.1-.2-.2-.307-1.229-2.457-2.355-4.914-3.788-7.269-1.229-2.048-2.559-3.993-3.993-5.938A85.62 85.62 0 0 0 38.9 48.732a90.313 90.313 0 0 0-10.34-9.419 90.439 90.439 0 0 0-11.671-7.985c-.304-.82-1.123-1.228-1.84-1.741Z"/><path d="M66.238 121.113H56V96.542h10.238v24.571Zm-6.143-4.1h2.048v-16.371H60.1l-.005 16.371Z" fill-rule="nonzero"/></g></svg>