<?xml version="1.0" encoding="utf-8"?>
<!-- Generator: Adobe Illustrator 23.0.2, SVG Export Plug-In . SVG Version: 6.00 Build 0)  -->
<svg version="1.1" id="Layer_1" xmlns="http://www.w3.org/2000/svg" xmlns:xlink="http://www.w3.org/1999/xlink" x="0px" y="0px"
	 viewBox="0 0 336 336" style="enable-background:new 0 0 336 336;" xml:space="preserve">
<g transform="translate(4 4)">
	<g>
		<path d="M163.8,331.5C71.3,331.5-4,256.2-4,163.8C-4,71.3,71.3-4,163.8-4c92.5,0,167.8,75.3,167.8,167.8
			C331.5,256.2,256.2,331.5,163.8,331.5z M163.8,5C76.2,5,5,76.2,5,163.8s71.2,158.8,158.8,158.8s158.8-71.2,158.8-158.8
			S251.3,5,163.8,5z"/>
	</g>
	<g>
		<path d="M195.8,323.7l-129-92.6l28.7,79l-3.8,1.4L61,227l-0.8-0.5l0.4-0.5L36,158.4L9.5,213.2l-3.6-1.7L76.5,65.5L21.6,86
			l-1.4-3.7l152.6-56.7L141.9,3.3l2.3-3.3l102.5,73.5L223,13.3l3.7-1.5l59.5,151.1l27.9-57.5l3.6,1.7l-71,146.6l65.4-28.6l1.6,3.7
			l-151,66.1l35.6,25.5L195.8,323.7z M64.3,224.4l95.1,68.2l-0.3-0.6l82.1-35.9l-0.1-0.1l42.7-88.2l-34.4-87.4l-72.7-52.1L82,63.5
			l-43.5,89.8L64.3,224.4z"/>
	</g>
	<g>
		<path d="M186.3,187.6h-43v-10.4h7v3.4h29c0-2,0-4.6,0-6.7h-44.9l-28.9-30.5l-0.1-52.3l24.7,0.1V79.8h7v11.5l52.9,0.2V79.4h7v12.1
			l24.8,0.1l-0.1,52.3L192,173.9h-5.7c0,4.3,0,10.1,0,10.2V187.6z M137.5,166.9h51.6l25.6-26l0.1-42.4l-102.4-0.4l0.1,42.4
			L137.5,166.9z"/>
	</g>
	<g>
		<path d="M174,159.2l-5.6-7l32.5-25.9l5.6,7L174,159.2z M139.2,156.1l-5.6-7l57.2-46l5.6,7L139.2,156.1z M127.2,131l-5.6-7.1
			l22.4-17.8l5.6,7.1L127.2,131z"/>
	</g>
	<g>
		<path d="M165.4,264c-3.4,0-6.9-0.4-10.3-1.4c-7.3-2.1-13-6.5-16.4-12.6c-3.3-6.2-4.5-13.3-3.5-20.1c0.6-5.7,2.7-11.1,5.8-15.9
			l0.1-0.1c3.1-4.3,7.5-7.4,12.2-8.7c0.1-0.8,0.1-1.8,0.1-2.8c0-1.4,0.1-3.1,0.2-5c-0.3-1.5-2.9-6.6-5.8-11.1l6.8-4.3
			c4.8,7.7,7.2,13,7,15.7c-0.1,1.9-0.2,3.5-0.2,4.9c-0.1,2.4-0.2,4.5-0.5,6.6l-0.5,3.1l-3.1,0.3c-3.5,0.3-7.1,2.5-9.7,6
			c-2.5,3.7-4,7.9-4.5,12.3l0,0.2c-0.8,5.2,0.1,10.6,2.6,15.2c2.3,4.2,6.2,7.2,11.5,8.7c7.6,2.2,16.1,0.8,20.4-1.5
			c4.3-2.4,7.4-8.1,9.5-14c-6.6,6.8-15.4,12.5-25.4,9.3c-6.4-2-12.5-8.2-10.5-20c1.4-7.8,10.9-12.1,18.6-12.8c0-2.9,0-5.5,0-8
			c0-3.5,0-6.8-0.1-10.9c-0.1-2.3,1.9-7.3,5.9-14.7l7.1,3.8c-2.2,4.1-4.7,9.4-4.9,10.9c0.1,4.2,0.1,7.6,0.1,10.9c0,3.3,0,6.8,0.1,11
			l0,0.1l0,0.3c-0.1,2.6-2.3,4.6-4.9,4.5l-0.1,0c-5.4-0.4-13.1,2.6-13.7,6.3c-1.3,7.4,1.9,10,4.9,10.9l0.1,0
			c10.7,3.4,22.1-11.8,27.2-21.3l1.3-2.5l5.6,0.9l0.5,2.8c0.3,1.6-2.3,31-17.3,39.4C177.8,262.4,171.9,264,165.4,264z M177.7,196.8
			C177.7,196.8,177.8,196.9,177.7,196.8C177.8,196.9,177.7,196.8,177.7,196.8z"/>
	</g>
</g>
</svg>
