<?xml version="1.0" encoding="utf-8"?>
<!-- Generator: Adobe Illustrator 23.0.2, SVG Export Plug-In . SVG Version: 6.00 Build 0)  -->
<svg version="1.1" id="Layer_1" xmlns="http://www.w3.org/2000/svg" xmlns:xlink="http://www.w3.org/1999/xlink" x="0px" y="0px"
	 viewBox="0 0 315 246" style="enable-background:new 0 0 315 246;" xml:space="preserve">
<style type="text/css">
	.st0{fill-rule:evenodd;clip-rule:evenodd;}
</style>
<g transform="translate(5 3)">
	<g>
		<path d="M116.2,243H85l-8.1-24.9c-5.3-1.5-10.4-3.5-15.3-6l-23.3,13L16,203.2l11.7-23.4c-3-5.2-5.4-10.6-7.1-16.3L-5,155.9v-31.2
			l25-8c1.5-5.4,3.6-10.7,6.2-15.6L13.3,77.6l22-22.1l23.4,11.8c5-2.8,10.3-5.1,15.8-6.8l7.3-25.2l31.2-0.9l8.3,25.4
			c5.3,1.5,10.4,3.5,15.2,6l22.9-12.8l22.9,21.3l-11.9,23.9c2.9,5.2,5.3,10.6,7.1,16.3l25.2,7.4l0.8,31.2l-25.4,8.2
			c-1.5,5.4-3.6,10.6-6.2,15.6l12.6,23l-21.4,22.7l-23.8-12.1c-4.9,2.8-10.2,5-15.6,6.7L116.2,243z M92.2,233h16.4l7-23.7l2.7-0.7
			c6.4-1.8,12.5-4.4,18.2-7.9l2.4-1.4l22.1,11.2l11.3-12l-11.7-21.5l1.4-2.4c3.3-5.7,5.7-11.8,7.3-18.2l0.7-2.7l23.6-7.6l-0.4-16.4
			l-23.5-6.9l-0.7-2.7c-1.8-6.6-4.6-13-8.2-18.8l-1.5-2.4l11.1-22.1L158,65.4l-21.4,11.9l-2.4-1.4c-5.6-3.2-11.6-5.5-17.9-7.1
			l-2.7-0.7l-7.7-23.5l-16.4,0.5l-6.8,23.5l-2.7,0.7c-6.5,1.8-12.6,4.4-18.4,7.9l-2.4,1.4l-21.8-11L25.7,79.3L37.6,101l-1.4,2.4
			c-3.3,5.7-5.7,11.9-7.3,18.3l-0.7,2.7L5,132v16.4l23.7,7l0.7,2.7c1.8,6.6,4.6,13,8.2,18.8l1.5,2.4l-10.9,21.9L40,212.7l21.6-12
			l2.4,1.4c5.6,3.2,11.7,5.5,18,7.1l2.7,0.7L92.2,233z M99.1,198C68,198,42.4,172,42,139.7c-0.2-15.7,5.5-30.6,16.1-41.9
			C68.7,86.4,83,80.1,98.3,79.9c0.2,0,0.5,0,0.7,0c31.1,0,56.7,26,57.1,58.3l0,0c0.2,15.7-5.5,30.6-16.1,41.9
			c-10.6,11.3-24.9,17.7-40.2,17.9C99.6,198,99.3,198,99.1,198z M99,89.9c-0.2,0-0.4,0-0.6,0c-12.5,0.2-24.2,5.4-33,14.7
			c-8.8,9.4-13.6,21.8-13.4,34.9c0.4,27,21.8,48.8,47.7,48.4c12.5-0.2,24.2-5.4,33-14.7c8.8-9.4,13.6-21.8,13.4-34.9l0,0
			C145.7,111.5,124.6,89.9,99,89.9z"/>
	</g>
	<g>
		<path d="M239.4,132.4l-20-4.2l-1.8-16.8c-3-1.6-5.9-3.5-8.6-5.6l-16.4,5.1l-11.3-17l10.4-13.2c-1.1-3.6-1.9-7.2-2.3-10.9
			l-15.1-8.1l4.2-20l16.7-1.8c1.6-3.1,3.6-6.1,5.8-8.8l-5-16.4l17.1-11.2L226.4,14c3.4-1.1,7-1.8,10.6-2.2l8-14.9L265,0.6l1.9,17.1
			c3,1.6,5.9,3.5,8.5,5.6l16.1-5L303.3,35l-10.7,13.5c1.1,3.5,1.9,7.2,2.3,10.9l14.9,8l-3.6,20.1L289,89.3c-1.6,3.1-3.6,6-5.8,8.8
			l4.9,16.1l-16.7,11.7l-13.4-10.8c-3.4,1.1-6.9,1.8-10.4,2.1L239.4,132.4z M225.8,122.4l9.9,2.1l7.5-13.9l1.9-0.1
			c4.2-0.3,8.4-1.1,12.3-2.5l1.8-0.7l12.3,9.9l8.3-5.8l-4.5-15l1.3-1.5c2.8-3.1,5.1-6.7,6.9-10.4l0.8-1.8l15.7-1.7l1.8-9.9
			l-13.8-7.4l-0.1-1.9c-0.3-4.4-1.1-8.7-2.6-12.8l-0.7-1.8l9.8-12.4l-5.8-8.2l-14.9,4.6l-1.5-1.3c-3.1-2.7-6.5-4.9-10.2-6.7
			l-1.8-0.8l-1.7-15.7l-9.9-1.8l-7.4,13.8l-1.9,0.1c-4.3,0.3-8.5,1.1-12.5,2.6l-1.8,0.7l-12.3-9.8l-8.4,5.5l4.6,15.1l-1.3,1.5
			c-2.8,3.1-5.1,6.7-6.9,10.4l-0.8,1.8l-15.5,1.7l-2.1,9.9l13.9,7.5l0.1,1.9c0.3,4.4,1.2,8.7,2.7,12.8l0.7,1.8L190,94.3l5.6,8.4
			l15.1-4.7l1.5,1.3c3.1,2.7,6.6,5,10.3,6.7l1.8,0.8L225.8,122.4z M241.7,102.7c-2.3,0-4.5-0.2-6.8-0.7c-9.7-1.9-18-7.6-23.5-16
			c-5.4-8.4-7.3-18.5-5.4-28.5c4.1-20.7,23.6-34.3,43.5-30.4c19.9,3.9,32.9,23.9,28.8,44.6l0,0C274.8,89.9,259.1,102.7,241.7,102.7z
			 M242.7,33.4c-14.1,0-26.8,10.5-29.8,25.4c-1.6,8.2,0,16.5,4.4,23.4c4.4,6.8,11.1,11.4,18.9,13c16.1,3.2,32-8,35.3-24.8
			c3.3-16.9-7.2-33.2-23.3-36.4C246.3,33.6,244.5,33.4,242.7,33.4z"/>
	</g>
	<g>
		<path d="M255.2,220.3l-4.6-10.9c-2.2-0.4-4.3-1.1-6.4-1.9l-10,6.7l-11.6-9.6l4.4-11c-1.4-2-2.5-4.2-3.5-6.4l-11.8-2.5l-1.2-15
			l10.9-4.6c0.5-2.2,1.1-4.4,2-6.6l-6.7-10.1l9.7-11.5l11,4.5c2-1.3,4-2.4,6.2-3.3l2.4-11.6l15-1.7l4.7,11.2
			c2.2,0.5,4.3,1.1,6.4,1.9l9.8-6.6l11.9,9.2l-4.5,11.3c1.4,2,2.5,4.2,3.5,6.4l11.6,2.4l1.7,15l-11.2,4.7c-0.5,2.2-1.1,4.4-2,6.6
			l6.6,9.9l-9.4,11.8l-11.2-4.6c-1.9,1.3-4,2.4-6.1,3.3l-2.4,11.9L255.2,220.3z M243.7,200.6l1.5,0.7c2.6,1.2,5.3,2,8.1,2.4l1.7,0.3
			l4.2,10l6.2-0.5l2.2-10.7l1.6-0.6c2.7-1,5.3-2.4,7.6-4.1l1.4-1l10.1,4.1l3.9-4.9l-6-9l0.7-1.5c1.2-2.6,2.1-5.4,2.5-8.2l0.3-1.6
			l10.1-4.2l-0.7-6.2l-10.6-2.2l-0.6-1.6c-1-2.8-2.5-5.5-4.2-7.9l-1-1.3l4.1-10.1l-4.9-3.8l-9,6l-1.5-0.7c-2.6-1.2-5.3-2-8.1-2.4
			l-1.6-0.3l-4.2-10.1l-6.2,0.7l-2.2,10.6l-1.6,0.6c-2.7,1-5.3,2.4-7.7,4.1l-1.4,1l-10-4.1l-4,4.7l6,9.1l-0.7,1.5
			c-1.2,2.6-2.1,5.4-2.5,8.2l-0.3,1.6l-9.9,4.2l0.5,6.2l10.7,2.2l0.6,1.6c1,2.8,2.5,5.5,4.3,7.9l1,1.3l-4,10l4.8,4L243.7,200.6z
			 M258.2,199.8c-5.9,0-11.6-2.1-16.3-5.9c-5.7-4.7-9.2-11.3-9.9-18.7c-1.4-14.9,9.1-28.1,23.5-29.5c6.8-0.7,13.5,1.4,18.8,5.8
			c5.7,4.6,9.2,11.3,9.9,18.8v0c1.4,14.9-9.1,28.1-23.5,29.5C259.9,199.8,259.1,199.8,258.2,199.8z M258.1,151.5
			c-0.6,0-1.3,0-1.9,0.1c-11.1,1.1-19.2,11.4-18.1,23c0.6,5.8,3.3,11,7.7,14.7c4.1,3.4,9.3,5,14.5,4.5c11.1-1.1,19.2-11.4,18.1-23
			c-0.6-5.8-3.3-11.1-7.7-14.7C267,153.1,262.6,151.5,258.1,151.5z"/>
	</g>
	<g>
		<path d="M115.6,181.7H82.2v-23.2H59v-33.4h23.2v-23.3h33.4v23.3h23.3v33.4h-23.3V181.7z M90.2,173.7h17.4v-23.2h23.3v-17.4h-23.3
			v-23.3H90.2v23.3H67v17.4h23.2V173.7z"/>
	</g>
	<g>
		<path d="M224.5,78.8l2.8-8.6l4.4-3.4l1.8,2.4l-3.6,2.8l-1.2,3.7c1.6-0.1,3.1-0.1,3.8-0.2L256.2,57l-2.6-3.4l-15.6,12.1l-1.8-2.4
			l16.2-12.5c0.9-0.8,2.2-0.6,3,0.2l3.8,4.8c0.7,1.1,0.5,2.5-0.5,3.2L234,78c-0.4,0.3-0.7,0.5-7.4,0.7L224.5,78.8z M256.8,56.5
			C256.8,56.5,256.7,56.6,256.8,56.5L256.8,56.5z"/>
	</g>
	<g>
		<circle class="st0" cx="258.1" cy="164.7" r="6.1"/>
		<path d="M258.1,173.3c-4.7,0-8.6-3.9-8.6-8.6s3.9-8.6,8.6-8.6s8.6,3.9,8.6,8.6S262.8,173.3,258.1,173.3z M258.1,161.1
			c-2,0-3.6,1.6-3.6,3.6s1.6,3.6,3.6,3.6c2,0,3.6-1.6,3.6-3.6S260.1,161.1,258.1,161.1z"/>
	</g>
	<g>
		<path class="st0" d="M258,186.6h8.5c0-6.6-3.8-12-8.5-12s-8.5,5.4-8.5,11.9L258,186.6z"/>
		<path d="M269,189.1h-11l-11-0.1l0-2.5c0-8.1,4.9-14.4,11-14.4c6.1,0,11,6.5,11,14.5V189.1z M258,184.1h5.8c-0.7-4-3.1-7-5.8-7
			c-2.7,0-5.1,3-5.8,7L258,184.1z"/>
	</g>
</g>
</svg>
