<svg xmlns="http://www.w3.org/2000/svg" width="193" height="73"><g fill="#000" fill-rule="evenodd"><path d="M125.1 49.243H0V0h125.1v49.243ZM5.324 43.919h114.455V5.324H5.324v38.595Z" fill-rule="nonzero"/><path d="m192.313 62.152-10.517-.133a2.662 2.662 0 1 1 0-5.324h5.057l-.13-22.495-20.363-6.921-5.59-21.96h-26.35v50.84l17.967.266a2.48 2.48 0 0 1 1.852 4.306 2.454 2.454 0 0 1-1.852.623h-23.291V0h35.8l5.989 23.29 21.294 7.187.134 31.675Z"/><path d="M166.626 72.4c-6.027 0-10.913-4.886-10.913-10.913s4.886-10.913 10.913-10.913 10.913 4.886 10.913 10.913c-.027 6.016-4.897 10.886-10.913 10.913Zm0-16.5a5.59 5.59 0 1 0 5.59 5.59 5.623 5.623 0 0 0-5.59-5.592v.002ZM109.398 72.4c-6.027 0-10.913-4.886-10.913-10.913s4.886-10.913 10.913-10.913 10.913 4.886 10.913 10.913c-.027 6.016-4.897 10.886-10.913 10.913Zm0-16.5a5.59 5.59 0 1 0 5.59 5.59 5.623 5.623 0 0 0-5.59-5.592v.002ZM13.575 72.4c-6.027 0-10.913-4.886-10.913-10.913s4.886-10.913 10.913-10.913 10.913 4.886 10.913 10.913c-.027 6.016-4.897 10.886-10.913 10.913Zm0-16.5a5.59 5.59 0 1 0 5.59 5.59 5.623 5.623 0 0 0-5.59-5.592v.002ZM38.862 72.4c-6.027 0-10.913-4.886-10.913-10.913s4.886-10.913 10.913-10.913 10.913 4.886 10.913 10.913c-.027 6.016-4.897 10.886-10.913 10.913Zm0-16.5a5.59 5.59 0 1 0 5.59 5.59 5.623 5.623 0 0 0-5.59-5.592v.002ZM86.773 72.4c-6.027 0-10.913-4.886-10.913-10.913s4.886-10.913 10.913-10.913 10.913 4.886 10.913 10.913c-.027 6.016-4.897 10.886-10.913 10.913Zm0-16.5a5.59 5.59 0 1 0 5.59 5.59 5.623 5.623 0 0 0-5.59-5.592v.002Z" fill-rule="nonzero"/><path d="M70.537 15.971H3.993a2.662 2.662 0 0 1 0-5.324h66.544a2.662 2.662 0 0 1 0 5.324ZM122.441 17.302H94.493a2.662 2.662 0 1 1 0-5.324h27.948a2.662 2.662 0 0 1 0 5.324ZM121.11 27.949H2.662a2.662 2.662 0 0 1 0-5.324H121.11a2.662 2.662 0 0 1 0 5.324ZM121.11 38.596H34.603a2.662 2.662 0 0 1 0-5.324h86.507a2.662 2.662 0 1 1 0 5.324ZM15.971 38.596H3.993a2.662 2.662 0 0 1 0-5.324h11.978a2.662 2.662 0 0 1 0 5.324Z"/><path d="M161.703 26.616h-21.96v-17.3h18.1l3.86 17.3Zm-16.636-5.324h9.982l-1.464-6.654h-8.518v6.654Z" fill-rule="nonzero"/><path d="M162.368 47.91a2.67 2.67 0 0 1-2.662-2.66V33.272a2.662 2.662 0 0 1 5.324 0V45.25a2.67 2.67 0 0 1-2.662 2.66Z"/></g></svg>