<svg xmlns="http://www.w3.org/2000/svg" width="139" height="125"><g fill="#000" fill-rule="evenodd"><path d="M139 124.896H0v-50h139v50Zm-135-4h131v-42H4v42Z" fill-rule="nonzero"/><path d="M36 78.896H11v-51.2l1.1-.5c.2-.1 6.1-2.9 11.7-2.9a26.892 26.892 0 0 1 11.1 2.9l1.1.6v51.1Zm-21-4h17v-44.7a21.973 21.973 0 0 0-8.2-1.9 26.016 26.016 0 0 0-8.8 2v44.6ZM126 78.896H73v-40.9c0-15.7 11.9-28.4 26.5-28.4s26.5 12.7 26.5 28.4v40.9Zm-49-4h45v-36.9c0-13.4-10.1-24.4-22.5-24.4S77 24.496 77 37.996v36.9Z" fill-rule="nonzero"/><path d="M32 48.296c-.5-.6-3.6-1.7-8.6-1.7s-8.1 1.2-8.6 1.8l.2-.4h-4c0-5 10.4-5.1 12.4-5.1s12.4.1 12.4 5.1h-4c.1-.1.2.2.2.3ZM32 57.596c-.5-.6-3.6-1.6-8.6-1.6s-8.1 1-8.6 1.6c0 0 .2.4.2-.6h-4c0-5 10.4-5.1 12.4-5.1s12.4.1 12.4 5.1h-4c.1.9.2.5.2.6Z"/><path d="M66 78.896H41v-51.2l1.1-.5c.2-.1 6.1-2.9 11.7-2.9a26.892 26.892 0 0 1 11.1 2.9l1.1.6v51.1Zm-21-4h17v-44.7a21.973 21.973 0 0 0-8.2-1.9 26.016 26.016 0 0 0-8.8 2v44.6Z" fill-rule="nonzero"/><path d="M62 48.296c-.5-.6-3.6-1.7-8.6-1.7s-8.1 1.2-8.6 1.8l.2-.4h-4c0-5 10.4-5.1 12.4-5.1 2.1 0 12.4.1 12.4 5.1h-4c.1-.1.2.2.2.3ZM62 57.596c-.5-.6-3.6-1.6-8.6-1.6s-8.1 1-8.6 1.6c0 0 .2.4.2-.6h-4c0-5 10.4-5.1 12.4-5.1 2.1 0 12.4.1 12.4 5.1h-4c.1.9.2.5.2.6ZM85 63.896a2.006 2.006 0 0 1-2-2v-26a2 2 0 1 1 4 0v26a2.006 2.006 0 0 1-2 2Z"/><g><path d="M23.1 21.396a2.353 2.353 0 0 1-.8-.2c-1.5-.7-4.2-3.1-3.3-7.7.326-1.36.83-2.672 1.5-3.9 1-2 1.7-3.3.2-6.7a2.036 2.036 0 0 1 3.7-1.7c2.4 5.2 1 7.9-.2 10.3-.52.913-.922 1.887-1.2 2.9-.5 2.4.7 3.1 1 3.2a1.9 1.9 0 0 1 1 2.6 2.057 2.057 0 0 1-1.9 1.2Z"/></g><g><path d="M54.1 21.396a2.353 2.353 0 0 1-.8-.2c-1.5-.7-4.2-3.1-3.3-7.7.326-1.36.83-2.672 1.5-3.9 1-2 1.7-3.3.2-6.7a2.036 2.036 0 0 1 3.7-1.7c2.4 5.2 1 7.9-.2 10.3-.52.913-.922 1.887-1.2 2.9-.5 2.4.7 3.1 1 3.2a1.9 1.9 0 0 1 1 2.6 2.057 2.057 0 0 1-1.9 1.2Z"/></g></g></svg>