<svg xmlns="http://www.w3.org/2000/svg" width="89" height="70"><g transform="translate(0 -1)" fill="#000" fill-rule="evenodd"><path d="M74.425 18.58a1.084 1.084 0 0 0-.642-.192h-2.5v-8.341a1.348 1.348 0 1 0-2.695 0v8.341h-4.364V7.48a1.348 1.348 0 0 0-2.695 0v10.907h-4.363V4.914a1.348 1.348 0 0 0-2.695 0v13.473h-4.362V2.347a1.348 1.348 0 0 0-2.695 0v16.04h-4.363V2.347a1.348 1.348 0 0 0-2.695 0v16.04h-4.362V4.914a1.348 1.348 0 0 0-2.695 0v13.473h-4.363V7.48a1.348 1.348 0 0 0-2.695 0v10.907h-4.362v-8.34a1.348 1.348 0 0 0-2.695 0v8.341h-5.069V8.763H0V71h14.115v-6.418h59.669c.229.005.454-.062.642-.192V71h14.115V8.763H74.425v9.817Zm-60.31 8.79h5.069v27.588h-5.069V27.37Zm7.763 0h4.363v27.588h-4.362l-.001-27.588Zm14.115 6.48h18.479v6.929H35.994l-.001-6.929Zm4.363 9.624v11.484h-4.362V43.474h4.362Zm2.695 0h4.363v11.484h-4.363V43.474Zm7.058 0h4.363v11.484h-4.363V43.474Zm7.058 0V27.37h4.363v27.588h-4.364l.001-11.484Zm-2.695-12.319h-4.363V27.37h4.363v3.785Zm-7.058 0h-4.363V27.37h4.363v3.785Zm-7.058 0h-4.362V27.37h4.363l-.001 3.785Zm-7.058 0v23.8h-4.362V27.37H33.3l-.002 3.785Zm-7.058 26.37v4.491h-4.361v-4.491h4.361Zm2.695 0H33.3v4.491h-4.364l-.001-4.491Zm7.058 0h4.363v4.491h-4.362l-.001-4.491Zm7.058 0h4.363v4.491h-4.363v-4.491Zm7.058 0h4.363v4.491h-4.363v-4.491Zm7.058 0h4.363v4.491h-4.364l.001-4.491Zm7.058 0h4.363v4.491h-4.364l.001-4.491Zm0-2.566V27.37h4.363v27.588l-4.363.001Zm7.057-27.589h2.5c.229.005.454-.062.642-.192v27.973a1.084 1.084 0 0 0-.642-.192h-2.5V27.37Zm2.5-6.416c.229.005.454-.062.642-.192V25a1.084 1.084 0 0 0-.642-.192h-2.5v-3.85l2.5-.004Zm-5.2 0V24.8h-4.358v-3.85h4.363l-.005.004Zm-7.058 0V24.8h-4.358v-3.85h4.363l-.005.004Zm-7.058 0V24.8h-4.357v-3.85h4.363l-.006.004Zm-7.058 0V24.8h-4.357v-3.85h4.363l-.006.004Zm-7.058 0V24.8h-4.356v-3.85h4.363l-.007.004Zm-7.058 0V24.8h-4.356v-3.85H33.3l-.008.004Zm-7.058 0V24.8h-4.355v-3.85h4.363l-.008.004Zm-12.126 0h5.069V24.8h-5.062v-3.85l-.007.004Zm-3.85 46.2H3.85V12.613h6.416l-.008 54.541Zm3.85-5.133v-4.496h5.069v4.491l-5.069.005Zm59.669 0h-2.5v-4.496h2.5c.229.005.454-.062.642-.192v4.876a1.084 1.084 0 0 0-.635-.193l-.007.005Zm4.491-49.4h6.416v54.528h-6.409l-.007-54.528Z" fill-rule="nonzero"/><circle cx="66.084" cy="68.432" r="2.566"/><circle cx="23.097" cy="68.432" r="2.566"/><path d="M74.425 3.631H88.54v2.566H74.425zM0 3.631h14.115v2.566H0z"/></g></svg>