<svg xmlns="http://www.w3.org/2000/svg" width="108" height="108"><path d="M53.75 0C24.065 0 0 24.065 0 53.75s24.065 53.75 53.75 53.75 53.75-24.065 53.75-53.75C107.478 24.074 83.426.022 53.75 0Zm0 3.707a49.887 49.887 0 0 1 38.181 17.7l-9.175-.371-.463 8.619a37.267 37.267 0 0 0-64.5 16.032l-6.672 7.228L4.17 46.8C7.708 22.12 28.817 3.772 53.75 3.707ZM20.481 54.121c0-18.579 15.061-33.64 33.64-33.64s33.64 15.061 33.64 33.64-15.061 33.64-33.64 33.64c-18.565-.033-33.607-15.075-33.64-33.64ZM3.707 53.75c-.015-.804.016-1.608.093-2.409l7.6 6.765 5.468-5.931c0 .649-.093 1.3-.093 1.946.026 17.09 11.615 31.996 28.171 36.235l6.024 7.228-6.209 5.375C20.993 98.615 3.721 77.912 3.707 53.75Zm50.043 50.043c-1.39 0-2.78-.093-4.078-.185l6.487-5.56-5.559-6.673c1.2.093 2.317.185 3.522.185a37.334 37.334 0 0 0 31.693-57.086l.463-9.453 8.619.371a49.531 49.531 0 0 1 8.9 28.358c-.015 27.633-22.414 50.03-50.047 50.043Z" fill="#000" fill-rule="nonzero"/></svg>