<svg xmlns="http://www.w3.org/2000/svg" width="93" height="120"><g fill="#000" fill-rule="evenodd"><path d="M71.554 115.471h1.085c0-.167.083-.334.083-.5-.584-.167-1.085-.25-1.67-.417-.5-.167-1.252-.083-1.586-.417-1.085-1.252-2.421-1.336-3.924-1.169a7.681 7.681 0 0 1-6.179-2.171 2.779 2.779 0 0 0-3.507-.417c-2.672 1.419-4.843-.751-7.347-1.252a6.991 6.991 0 0 1-3.089-1.169c-1.67-1.252-4.425-1.586-3.757-4.759.167-.835-.668-1.92-1.336-2.755-1.837-2.421-3.841-4.592-5.594-7.013-.668-.918-1.085-2.171-1.67-3.173a24.853 24.853 0 0 0-1.67-2.421c-.25.167-.584.334-.835.5 2 4.091 4.091 8.182 6.1 12.274l-.5.25c-1.753-2.338-3.507-4.676-4.843-6.512-.417-1.336-.584-2.171-.835-3.006a22.594 22.594 0 0 0-1.419-3.256c-.918-1.5-1.92-2.922-2.922-4.342-.167-.25-.668-.417-.835-.668-1.586-4.258-3.173-8.516-1-13.192.835-1.67.918-3.674 1.336-5.678.334.167.835.334 2.087.835-1-1.92-1.753-3.256-2.421-4.592-.13.078-.27.134-.417.167a25.5 25.5 0 0 0 1.085 2.672c-.15.064-.29.148-.417.25-.918-1.169-1.92-2.338-2.839-3.507 1.5-1.419-.167-8.6-2.171-9.685a77.247 77.247 0 0 0 1.67-.25c-.417-.167-.751-.334-1.169-.5-.926-1.339-1.848-2.675-2.848-3.927-1.336-1.67-2.755-3.256-4.258-4.843a1.314 1.314 0 0 0-1-.083c-.751.25-1.5.5-2.588.918.167-.918.25-1.5.334-2A29.413 29.413 0 0 1 5.511 41.5c-1.83.194-3.675.22-5.511.079v-.665c1.028.083 2.061.083 3.089 0a8.371 8.371 0 0 0 2.171-.835 66.879 66.879 0 0 1-2.5-7.013 2.669 2.669 0 0 1 3.674-2.922c.668.054 1.34.026 2-.083-.25-.5-.584-1-.835-1.5-.417-.918-.835-1.837-1.169-2.755.25-.167.5-.417.751-.584.918.668 1.837 1.252 3.006 2.087v-4.595c2.171 0 4.091-.083 5.928.083.707.06 1.364.39 1.837.918 2.588 2.5 5.093 5.01 7.681 7.514.25.25 1.085.083 1.586 0 1.5-.167 3.006-1.252 4.509.751.835 1.085 2.922 1.252 4.592 1.837.918-.083 2.087-.167 3.256-.25 0-.083.083-.167.083-.25-1.085-.334-2.171-.584-3.757-1.085.751-.334 1.085-.584 1.336-.668-.417-.668-.835-1.169-1.085-1.5-.835.167-2 .918-2.588.584-.918-.584-.751-1.837.167-2.672.334-.25.417-.751.584-1.169.167-.334.25-.668.584-1.586 2.254 1.753 4.258 3.423 6.345 5.01.5-.751 1.085-1.586 1.837-2.755.5 2.755-.918 5.594 2.087 6.512-.167.918-.334 1.67-.5 2.5 2.254.083 2.171.083 1.753-1.92-.083-.334.334-.751.5-1.085.417.334 1.085.584 1.252 1 .156.713.184 1.448.083 2.171 2.922-2.171-.167-3.507-.668-5.01-.25-.668-2-.835-3.507-1.336 1.085-1.252 1.753-2 2.338-2.672.668 1.085 1 1.753 1.419 2.421-.417-2.922-.083-3.423 2.254-2.839-2.421 2.672-.25 4.676 1 6.846.25.417.668 1.169 1 0 .334.334.751.584.918.918.25.5.25 1 .918 1.5a7.879 7.879 0 0 0 .5-2.254c-.083-.584-.584-1.419-1.085-1.5-2.087-.584-3.173-3.34-1.753-5.01a2.693 2.693 0 0 1 1.085-.668c.918.918 1.586-.167 2.338-.25.668-.083 1.419-.083 2.087-.167 0 .167.083.417.083.584-.5.334-1.085.668-1.67 1 1.753.25 3.59.083 4.926.751 1.252.668 4.342-.25 3.173 3.256 1.837.334 3.59.584 5.344.918v2.5c-.918-.167-1.753-.25-2.588-.417-.092.152-.15.323-.167.5 1.169.918 2.338 1.837 3.924 3.089-1.252.083-1.92.083-2.5.167.668.417 1.252.835 1.92 1.252-.083.167-.083.334-.167.5a17.884 17.884 0 0 1-3.59-.584c-1.419-.5-2.755-1.586-4.258-.083-.083.083-.584-.167-.918-.334.167-.334.167-.835.5-1.085 2.254-1.92 1.837-4.175-.918-5.344-2.672-1.169-2.672-1.169-3.841-.751.42.964.728 1.972.918 3.006.083.584-.334 1.753-.751 1.837-1.5.25-1.336 1.419-1.837 2.421a28.42 28.42 0 0 1-2.421 4.008 21.54 21.54 0 0 0-1.5 2.672 4.2 4.2 0 0 0 3.59 5.427c.5.083 1 .334 1.5.417 1.753.5 3.507 1 5.511 1.67 1.252 3.173 1.252 3.173 3.423 4.008 1.5-1.92-.835-3.006-1-4.676 1.92-2.588 1.753-3.674-.584-5.344-.584-2.087-1.085-3.674-1.67-5.845 1.837.167 3.59.25 5.344.5a1.7 1.7 0 0 1 1.085.918c.417 1.336 1.419 2.087 2.5 1.753.668-.25.918-1.67 1.586-3.173 1 .751 2.087 1.753 3.256 2.5a13.842 13.842 0 0 0 2.922 1.5c1 .334 2.171.334 3.173.584 1.753.5 1.92 1.336 1 3.006-1.252 2.421-3.173 3.674-5.427 4.926-1.169.668-1.67 2.421-2.171 3.924a9.491 9.491 0 0 1 2.099-2.317 14.547 14.547 0 0 1 3.5-1.085c-1.085 1-1.753 1.67-2.338 2.254 1.5 1.67 3.089 2.755 5.177.918.083-.083.668.334.751.417a265.384 265.384 0 0 1-3.59 4.425c-.167 0-.25-.083-.417-.083.25-.835.417-1.67.584-2.421-3.173 1.252-5.01 5.344-3.34 7.932-3.34.417-2.755 3.173-3.34 5.26a5.667 5.667 0 0 1-.751 1.336c2 3.34 2 3.34-.668 6.846-2.5 3.34-2.421 3.757.417 7.765a16.678 16.678 0 0 1 1.586 3.507c-.334.25-.751.417-1.085.668a33.628 33.628 0 0 1-3.173-3.841c-.751-1.169-1.085-2.421-3.006-1.5-.918.417-2.254-.167-3.34.083-.923.436-1.815.938-2.667 1.501a3.313 3.313 0 0 1-2 .334c-4.091-.751-6.846 1.837-6.346 5.928 0 .25.083.668-.083.918-1.586 3.674.918 5.928 3.089 8.1 1.92 1.92 6.262.167 6.763-2.5.334-1.837 2.171-2.755 4.676-2.338-.334 2.672-.668 5.427-1.085 8.433 1.419-.334 2.755-.584 4.091-.918 2.421-.584 3.757.334 4.008 2.839.25 2.171-.083 4.509 2.421 5.845 1.5.835 2.755 1.085 3.924-.5s2.672-.835 4.091-.417c1.5.417 2.087 1.419 1.5 3.256a19.381 19.381 0 0 0-2.087-1.753 15.314 15.314 0 0 0-2-1.085c-.334.751-.668 1.419-1 2.171a3.884 3.884 0 0 0 0 1c-3.256-1.419-7.013-1-9.769-3.34a1.411 1.411 0 0 1 .161-.758ZM55.356 66.794c2.5-.334 4.592-.584 6.846-.918-2.254-2.922-2.671-2.922-6.846.918Zm6.763-.083c-.668.5-1.753 1-1.753 1.5.038 1.57.205 3.134.5 4.676.25 0 .5-.083.751-.083.168-1.918.335-3.755.502-6.09v-.003Zm.751-.5c1.085 1.586 1.753 2.672 2.5 3.757.184-.13.38-.241.584-.334.083-.668.083-1.419.167-1.837.584-.167.835-.334 1.169-.417v-.666a78.795 78.795 0 0 0-4.419-.5l-.001-.003Z" fill-rule="nonzero"/><path d="M64.04 2.254c1-1 1.586-1.586 2.171-2.254 2.588 2.087 2.839 6.6 7.264 6.345-.083.417-.25.835-.334 1.252 2.922.25 4.425 1.586 4.091 5.01.375.14.77.224 1.169.25 3.507.167 4.843 1.753 3.674 5.093-.584 1.67-1.336 3.173-.334 4.843a.379.379 0 0 1 0 .417c-2.338 4.008.751 7.013 2.087 10.27.167.334.083.668.167.918-1 .334-1.92.751-2.755 1a1.61 1.61 0 0 1-1.085 0c-2.672-1.67-5.26-3.423-7.848-5.177a1.1 1.1 0 0 1-.25-1c.668-2.5.083-3.841-2.922-3.507.417-.25.918-.5 1.92-1.085h-2.841c-1.336-1.336-2.755-2.755-4.091-4.175-1.837-1.92-3.59-1.085-5.678.751-.334-1.169-.5-2-.751-2.839-.417-.083-1.252-.25-2.421-.417a19.813 19.813 0 0 0 1.586-2.588 2.158 2.158 0 0 0 .083-1.753c-.835-1.252-.918-4.592.167-5.511a4.739 4.739 0 0 1 2-.668 9.323 9.323 0 0 1-.83-1.329c.835.167 1.419.25 2.421.417-.751-.835-1.336-1.419-1.586-1.67a7.658 7.658 0 0 1 .668-2.087 13.752 13.752 0 0 1 1.837-2c.667.826 2.838-1.929 2.421 1.494ZM47.175 22.043c.5.25.918.417 1.67.751.584-1.085 1.085-2.171 1.67-3.34-3.59-.835-4.509-2.5-3.423-5.761 1.169.5 2.338 1.085 3.59 1.586v-.25c-1.169-.918-2.338-1.837-3.34-2.588a37.376 37.376 0 0 1 3.173-3.674c1.5-1.5 3.34-1.67 5.761-.584-.835 2.755-1.837 5.511-2.421 8.266a8.538 8.538 0 0 0 .167 4.091c.25 1.169.417 1.586-1.169 1.5-1.085-.083-2.254.584-3.34.918.083.334.167.751.25 1.085a13.08 13.08 0 0 1 2.5-.417c.789.03 1.573.141 2.338.334-.5.5-.918 1.252-1.5 1.419a49.97 49.97 0 0 1-5.093.584c-.167 0-.5-.334-.584-.5a.786.786 0 0 1 .334-.751c1.169-.835 1.169-.751-.083-1.5-.334-.167-.5-.584-.751-.835.063-.126.148-.239.251-.334ZM87.585 54.689c-1.5.584-2.672 1-4.175 1.586-.083-2-.25-3.924-.334-5.845l.5-.25c.334 1.67.334 3.006 2.755 1.92 1.588-.584 1.337 1.587 1.254 2.589ZM70.051 99.608c.835-2.338 3.006-3.089 6.262-2.588 2.338.334 4.676.751 7.264 1.169-1.586 1.5-3.34 1-4.926.5a9.207 9.207 0 0 0-8.6.919ZM92.427 97.769c-2.421 1-4.843 2-7.18 3.006-.083-.25-.167-.417-.25-.668.668-.25 1.252-.417 2.421-.835-.835-.5-1.252-.751-1.753-1.085a2.312 2.312 0 0 1 .083-.751c2.171-.25 4.342-.417 6.512-.668 0 .34.057.679.167 1.001ZM38.822 22.71c.835.668 1.419 1.252 2.254 1.837.083-.751.167-1.419.25-2.672.668 1.336 1.169 2.171 1.586 3.006-1.169.584-2.254 1.169-3.841 2 .25-.918.334-1.252.417-1.67a18.759 18.759 0 0 0-1.67-.25c.338-.832.672-1.5 1.004-2.251ZM55.189 39.409c1.5.835 2.755 1.586 4.008 2.254a15.74 15.74 0 0 1-2.588 1.085 1.517 1.517 0 0 1-1.336-.668 8.834 8.834 0 0 1-.084-2.671Z"/></g></svg>