<svg xmlns="http://www.w3.org/2000/svg" width="79" height="102"><g fill="#000" fill-rule="evenodd"><path d="M75.494 59.377V48.944a4.88 4.88 0 0 0-1.612-9.5 6.617 6.617 0 0 0-1.866.339l-4.75-5.938a9.85 9.85 0 0 0-9.84-9.246 10.322 10.322 0 0 0-3.647.679l1.357-4.92c.41-1.434.611-2.92.594-4.411A15.928 15.928 0 0 0 39.783 0h-.763c-8.845.022-16.01 7.187-16.033 16.032a15.377 15.377 0 0 0 .594 4.411l1.357 4.92a10.322 10.322 0 0 0-3.647-.679 9.7 9.7 0 0 0-9.755 9.161l-4.75 5.938a4.565 4.565 0 0 0-1.866-.339 4.831 4.831 0 0 0-1.612 9.415v10.518A4.869 4.869 0 0 0 0 64.042v4.92h3.308v-4.92a1.611 1.611 0 0 1 1.612-1.611 1.668 1.668 0 0 1 1.612 1.612v4.92H9.84v-4.92a4.842 4.842 0 0 0-3.308-4.581V48.944a4.956 4.956 0 0 0 3.308-4.581 5.778 5.778 0 0 0-.594-2.375l2.969-3.732a9.846 9.846 0 0 0 9.076 6.107h6.956l1.441 4.837H26.3a8.236 8.236 0 0 0-8.228 8.228v14.757h4.92v19.68h.085a8.21 8.21 0 0 0-1.7 4.92v4.92h16.37v-4.92a8.21 8.21 0 0 0-1.7-4.92h.085v-19.68h6.531v19.68h.085a8.21 8.21 0 0 0-1.7 4.92v4.92h16.378v-4.92a8.21 8.21 0 0 0-1.7-4.92h.085v-19.68h4.92V57.426a8.236 8.236 0 0 0-8.225-8.226h-3.478l1.442-4.92h6.956a9.846 9.846 0 0 0 9.074-6.109l2.971 3.729a4.5 4.5 0 0 0-.594 2.375 4.842 4.842 0 0 0 3.308 4.581v10.521a4.956 4.956 0 0 0-3.308 4.581v4.92h3.308v-4.92a1.612 1.612 0 0 1 3.223 0v4.92h3.308v-4.92a4.766 4.766 0 0 0-3.222-4.581Zm0-15.1a1.612 1.612 0 1 1-1.612-1.612 1.668 1.668 0 0 1 1.612 1.613v-.001ZM29.18 27.907l-1.951-6.7a36.266 36.266 0 0 0 12.13 1.781 37.775 37.775 0 0 0 12.13-1.7l-1.866 6.616-20.443.003Zm23.326-11.875c0 .424-.085.848-.085 1.272-1.527.933-5.514 2.375-13.063 2.375-6.7 0-11.2-1.357-13.063-2.46 0-.424-.085-.848-.085-1.272a11.3 11.3 0 0 1 .763-4.156 47.62 47.62 0 0 0 12.384 1.272 47.62 47.62 0 0 0 12.384-1.272 12.1 12.1 0 0 1 .765 4.241ZM39.019 3.308h.763A12.715 12.715 0 0 1 50.3 8.907c-3.567.759-7.21 1.1-10.857 1.017a46.428 46.428 0 0 1-10.857-1.017 12.34 12.34 0 0 1 10.433-5.599ZM4.92 45.975a1.612 1.612 0 0 1 0-3.223 1.668 1.668 0 0 1 1.612 1.612 1.611 1.611 0 0 1-1.612 1.611ZM26.3 85.333h6.531v3.987a8.4 8.4 0 0 0-6.616 0v-3.987h.085Zm6.531-3.308H26.3v-3.308h6.531v3.308Zm1.612 16.456H24.6v-1.612a4.92 4.92 0 1 1 9.84 0l.003 1.612Zm-1.616-22.987H26.3v-3.309h6.531l-.004 3.309Zm13.148 9.84h6.531v3.986a8.4 8.4 0 0 0-6.616 0v-3.987l.085.001Zm6.531-3.308h-6.531v-3.309h6.531v3.309Zm1.612 16.456h-9.84v-1.613a4.92 4.92 0 1 1 9.84 0v1.613Zm-1.612-22.988h-6.531v-3.309h6.531v3.309Zm0-22.987a4.923 4.923 0 0 1 4.92 4.92v11.45h-36.05V57.426a4.923 4.923 0 0 1 4.92-4.92h4.411l2.968 10.434a6.008 6.008 0 0 0 11.536 0l2.969-10.434h4.326v.001Zm-10.518 9.5a2.723 2.723 0 0 1-2.63 1.951 2.83 2.83 0 0 1-2.63-1.951l-5.089-17.729h15.354l-5.005 17.729Zm15.438-20.952h-36.05a6.532 6.532 0 0 1 0-13.063 6.457 6.457 0 0 1 1.781.254 4.944 4.944 0 0 0-3.393 4.665v4.92h3.308v-4.92a1.611 1.611 0 0 1 1.612-1.611H54.2a1.611 1.611 0 0 1 1.612 1.612v4.92h3.308v-4.92a4.944 4.944 0 0 0-3.393-4.665 6.457 6.457 0 0 1 1.781-.254 6.534 6.534 0 0 1 6.531 6.531 6.607 6.607 0 0 1-6.613 6.531Z" fill-rule="nonzero"/><path d="M49.198 34.439h3.308v3.308h-3.308zM42.667 34.439h3.308v3.308h-3.308z"/></g></svg>