<svg xmlns="http://www.w3.org/2000/svg" width="138" height="74"><g fill="#000" fill-rule="evenodd"><path d="M27.71 54.879v-4.6H5.136c-1.892 0-4.325.406-4.325-2.163 0-2.839 2.568-2.3 4.461-2.3H27.71v-4.6H5.407a8.217 8.217 0 0 1-2.568-.135C2.028 40.686.946 39.875.946 39.2c-.135-.676.946-1.757 1.622-2.028a5.363 5.363 0 0 1 3.244-.541h21.9V32.17h-21.9a10.12 10.12 0 0 1-2.839-.27 3.549 3.549 0 0 1-2.027-1.622c-.27-.541.406-1.487.811-2.163a8.23 8.23 0 0 1 2.028-1.622C13.923 19.735 24.2 12.841 34.6 6.083a10.12 10.12 0 0 1 4.461-1.352c5.136-.135 10.408 0 15.68-.135a7.82 7.82 0 0 0 3.785-1.217A18.025 18.025 0 0 1 69.342 0h34.6c3.379 0 4.19 1.081 3.109 4.6h25.817c1.005.002 2.005.139 2.974.406 1.622.676 2.028 1.757.676 3.109a12.112 12.112 0 0 1-2.568 2.028 2277.644 2277.644 0 0 1-29.873 19.735c-1.532 1-3.308 1.56-5.136 1.622-7.3.27-14.734.135-22.033.27h-2.835c-.27.541-.406.676-.406.811-.676 6.083-.676 6.083 5.407 6.083 5.947 0 11.895.135 17.978-.135a13.765 13.765 0 0 0 5.677-1.622c9.732-6.353 19.465-12.841 29.2-19.329.676-.406 1.352-1.217 2.163-1.217a4.074 4.074 0 0 1 2.839.676c.406.406.135 1.892-.27 2.568-.406.811-1.352 1.217-2.163 1.757-10 6.623-19.87 13.382-30.008 20.005a10.786 10.786 0 0 1-5.677 1.757c-8.516.406-16.626.27-25.277.27a79.812 79.812 0 0 0 .135 8.11c0 .406 1.081 1.081 1.622 1.081 8.11 0 16.22 0 24.331-.27a5.44 5.44 0 0 0 2.7-1.217c9.732-6.488 19.6-13.111 29.467-19.6.676-.406 1.487-1.217 2.163-1.217a2.989 2.989 0 0 1 2.568.811c.406.406.27 1.757-.135 2.433-.67.778-1.444 1.46-2.3 2.028-9.867 6.623-19.735 13.112-29.6 19.735a11.6 11.6 0 0 1-6.623 2.028c-7.975-.135-16.085 0-24.2 0v6.759c.939.157 1.887.247 2.839.27 7.3 0 14.734 0 22.033-.135a8.187 8.187 0 0 0 3.92-1.487c9.867-6.488 19.6-12.976 29.332-19.464.676-.406 1.487-1.217 2.163-1.217a4.159 4.159 0 0 1 2.568.811c.406.406.135 1.757-.27 2.433a13.582 13.582 0 0 1-2.568 2.163c-9.867 6.623-19.6 13.247-29.6 19.6a13.016 13.016 0 0 1-6.488 1.892c-7.975.27-16.085.135-24.331.135a10.719 10.719 0 0 1-.27 2.3 8.228 8.228 0 0 1-2.163 2.163c-.541.406-1.487.135-2.3.135H32.17c-4.055 0-4.325-.27-4.866-4.461-.811 0-1.757-.135-2.7-.135H4.325a6.4 6.4 0 0 1-2.3-.135C1.217 68.531.27 67.585.27 66.909c0-.676.946-1.622 1.757-2.028a7.217 7.217 0 0 1 2.974-.27c6.759 0 13.652 0 20.411.135.541 0 .946-.135 1.622-.135v-4.46H4.6c-.541 0-1.352.27-1.757 0A24.48 24.48 0 0 1 0 57.718c.946-.676 1.757-1.892 2.7-2.028a27.868 27.868 0 0 1 5.812-.135 186.04 186.04 0 0 1 19.198-.676ZM97.322 4.866c-.946 0-1.487-.135-1.892-.135H67.044a7.82 7.82 0 0 0-3.784 1.216c-9.6 6.218-19.059 12.706-28.521 18.924a4.826 4.826 0 0 0-2.3 4.461c.135 12.165 0 24.331 0 36.631 0 .811.135 1.487.135 2.433H68.8v-2.974c0-12.3.135-24.6-.135-36.9a7.646 7.646 0 0 1 3.92-7.164c7.57-4.866 14.869-9.867 22.3-14.869a7.589 7.589 0 0 0 2.437-1.623Zm29.468 4.866c-.676-.135-.811-.27-1.081-.27H100.7a5.474 5.474 0 0 0-2.839.946c-7.57 5-15 9.867-22.573 15a16.027 16.027 0 0 0-2.163 2.163c7.029 0 13.382-.27 19.6.135 4.682.34 9.33-1.003 13.111-3.785 5-3.514 10.138-6.894 15.274-10.273a68.809 68.809 0 0 1 5.68-3.916ZM27.845 27.44c-.27-2.839 1.352-4.325 3.379-5.677 2.7-1.757 5.272-3.514 7.84-5.136 3.379-2.3 6.759-4.461 10-6.759a50.4 50.4 0 0 0-7.7-.541 9.891 9.891 0 0 0-6.623 2.028c-7.164 5-14.6 9.732-21.9 14.6-.63.442-1.217.94-1.757 1.487l16.761-.002Z" fill-rule="nonzero"/><path d="M59.745 36.902c-.406.406-1.081 1.757-1.757 1.622a3.048 3.048 0 0 1-2.433-1.757c-.676-1.892-1.217-3.785-3.379-4.325a4.539 4.539 0 0 0-5.677 3.244c-.541 2.839 1.217 5.136 4.325 5.407 5.947.541 9.462 4.461 9.056 10.138a8.273 8.273 0 0 1-4.731 7.029 3.1 3.1 0 0 0-2.028 2.839c-.135.946-1.352 1.892-2.028 2.839a12.84 12.84 0 0 1-2.163-2.568 3.946 3.946 0 0 0-2.3-2.974c-2.839-1.217-4.055-3.785-4.6-6.623-.27-1.487-.135-2.974 1.757-3.379 1.892-.405 2.3.946 2.7 2.3.811 3.244 2.974 4.731 5.407 4.055a4.219 4.219 0 0 0 3.514-4.19 4.151 4.151 0 0 0-3.379-4.461c-1.352-.406-2.7-.406-3.92-.811a8.35 8.35 0 0 1-6.083-7.434c-.406-3.785.946-6.894 4.325-8.786a4.475 4.475 0 0 0 2.7-3.514c.135-1.217.541-2.7 2.163-2.028a3.854 3.854 0 0 1 2.028 2.568 2.957 2.957 0 0 0 1.757 2.7c2.853 1.215 4.34 3.919 4.746 8.109Z"/></g></svg>