<svg xmlns="http://www.w3.org/2000/svg" width="94" height="105"><path d="M91.8 25.9c-.3-.1-27.7-9-43.2-24.5L47.2 0l-1.4 1.4C30.3 16.9 1.9 25.8 1.6 25.9l-1.6.5.2 1.7a153.861 153.861 0 0 0 8.2 31.6c8.5 22.2 21.3 37.8 36.9 45l.4.2h1.9l.4-.2c15.6-7.2 28.4-22.7 36.9-45a139.959 139.959 0 0 0 8.2-31.6l.2-1.6-1.5-.6Zm-45.1 74.9h-.1c-13.7-6.5-23.1-19-29.3-31H76c-9.4 18.4-20.7 27-29.3 31Zm34.5-42.5c-1 2.7-2.1 5.1-3.2 7.5H15.4c-1.2-2.6-2.3-5.1-3.2-7.5a149.8 149.8 0 0 1-4.9-15.5h78.8a149.8 149.8 0 0 1-4.9 15.5Zm5.9-19.5H6.3c-1-4.3-1.6-7.7-1.9-9.6C10.6 27.1 32.9 19 47.2 5.6 61.4 18.9 82.9 27.1 89 29.2c-.3 1.9-.9 5.3-1.9 9.6Z" fill="#000" fill-rule="nonzero"/></svg>