<svg xmlns="http://www.w3.org/2000/svg" width="97" height="94"><path d="M96.083 43.53 15.457.174a1.851 1.851 0 0 0-1.334-.083l-.75.25L.199 27.939a1.693 1.693 0 0 0-.083 1.417l.334.75.667.25c.334.083 2.585 1.084 18.426 9.338v17.677L3.618 67.96v-8.838H.283V93.14l19.01-12.256 20.846-14.175V50.534c1.084.584 1.251.667 2.168 1.167 15.341 8.421 18.176 9.588 19.177 9.588a.625.625 0 0 0 .417-.083l.667-.25v-.083l8.338-3.585 10.672 5.67c.253.143.545.201.834.167a1.661 1.661 0 0 0 1.5-.917l4.919-8.671c.258-.395.32-.887.167-1.334l-.25-.75-.667-.334a9.258 9.258 0 0 0-1.251-.667l9.088-3.752a1.88 1.88 0 0 0 1.084-1.5 1.74 1.74 0 0 0-.919-1.67ZM81.825 59.288l-6.754-3.585 8.088-3.418c.687.323 1.354.685 2 1.084l-3.334 5.919Zm-45.023 5.587L17.458 78.048 3.618 86.97V71.962l19.26-12.673v-17.18l13.924 7.17v15.596Zm24.513-7c-1.084-.5-4.919-2.251-17.342-9.088-1.167-.667-1.167-.667-3.335-1.751-2.168-1.084-6.5-3.335-16.259-8.5-10.172-5.344-17.34-9.096-20.511-10.597l6.92-14.508c40.6 21.845 59.615 32.017 68.369 36.686l-17.842 7.758Zm21.844-9.342c-7.5-4-26.014-13.841-70.87-38.02l3.085-6.504L91.58 44.948l-8.421 3.585Z" fill="#000" fill-rule="nonzero"/></svg>