<svg xmlns="http://www.w3.org/2000/svg" width="62" height="98"><path d="m22.249 97.292-2.69-1.435a47.809 47.809 0 0 1-10.312-7.8C2.522 81.33-.617 73.888.1 66.445c.807-7.532 5.649-15.692 10.85-24.39 6.815-11.388 14.437-24.3 13.9-37.751L24.58 0l3.232 2.869c.628.538 14.347 13.092 14.347 29.591v1.255c0 3.856 0 9.595 1.435 11.119.16.177.39.276.628.269.09 0 .179 0 .269-.179 1.166-1.345 1.345-6.277 1.076-9.146l-.455-4.573 3.407 3.049c.448.448 11.478 10.581 12.912 32.281.807 11.567-3.766 18.92-7.712 23.045a27.393 27.393 0 0 1-8.967 6.277l-2.6.986.269-2.78a28.669 28.669 0 0 0-1.166-8.877A34.583 34.583 0 0 0 30.767 68.6c-8.788 8.7-8.608 25.646-8.608 25.825l.09 2.867Zm8.519-33.536 1.166.986C43.412 74.426 45.653 85.9 46.012 91.284c4.3-2.511 13-9.5 12.016-24.48A53.365 53.365 0 0 0 51.66 44.3c-.807-1.435-1.614-2.6-2.331-3.676-.179 2.511-.717 5.2-2.062 6.725a3.831 3.831 0 0 1-2.955 1.342 4.07 4.07 0 0 1-3.138-1.345c-2.6-2.6-2.511-8.429-2.511-13.63V32.46c0-10.4-6.367-19.369-10.222-23.852-.9 12.823-7.981 24.749-14.347 35.33C9.067 52.188 4.405 60.079 3.687 66.8c-1.255 12.02 9.864 20.9 15.065 24.394.359-6.1 2.242-19.279 10.94-26.453l1.076-.985Z" fill="#000" fill-rule="nonzero"/></svg>