<svg xmlns="http://www.w3.org/2000/svg" id="pcypmycxjt-Layer_1" x="0" y="0" viewBox="0 0 300 300" style="enable-background:new 0 0 300 300" xml:space="preserve"><style>.pcypmycxjt-st0{fill:#fff}</style><path class="pcypmycxjt-st0" d="M33.11 250.22h245.72v9.54H33.11zM94.62 193.32c-15.62 0-28.29 12.67-28.29 28.29S79 249.9 94.62 249.9s28.29-12.67 28.29-28.29-12.67-28.29-28.29-28.29zm0 48.09c-10.94 0-19.8-8.87-19.8-19.8 0-10.94 8.87-19.8 19.8-19.8s19.8 8.87 19.8 19.8c0 10.93-8.86 19.8-19.8 19.8z"/><circle class="pcypmycxjt-st0" cx="94.62" cy="221.61" r="9.38"/><path class="pcypmycxjt-st0" d="M217.3 193.32c-15.62 0-28.29 12.67-28.29 28.29s12.67 28.29 28.29 28.29 28.29-12.67 28.29-28.29-12.67-28.29-28.29-28.29zm0 48.09c-10.94 0-19.8-8.87-19.8-19.8 0-10.94 8.87-19.8 19.8-19.8s19.8 8.87 19.8 19.8c0 10.93-8.86 19.8-19.8 19.8z"/><circle class="pcypmycxjt-st0" cx="217.3" cy="221.61" r="9.38"/><path class="pcypmycxjt-st0" d="M222.34 183.78H80.39l-19-84.21h178.95zM87.45 89.58l8.13-18.39 22.07 3.2 18.96-15 24.2 9.77 7.54 16.94v3.48zM177.94 89.58v-5.13l-7.26-15.97 13.64-16.25 24.1 8.61 10.16 14.42-2.52 14.32z"/></svg>