<svg xmlns="http://www.w3.org/2000/svg" xmlns:xlink="http://www.w3.org/1999/xlink" width="108" height="90"><defs><path id="a" d="M0 .296h108V89.94H0z"/></defs><g fill="none" fill-rule="evenodd"><mask id="b" fill="#fff"><use xlink:href="#a"/></mask><path d="M18.112 50.9v23.986h16.766c6.526 0 10.667-.183 12.422-.551 2.692-.489 4.885-1.682 6.577-3.579 1.693-1.897 2.54-4.436 2.54-7.618 0-2.692-.653-4.976-1.958-6.853-1.306-1.876-3.192-3.243-5.66-4.1-2.469-.857-7.823-1.285-16.063-1.285H18.112Zm0-35.674v20.743h11.871c7.057 0 11.442-.101 13.156-.306 3.099-.367 5.537-1.437 7.312-3.212 1.775-1.774 2.662-4.109 2.662-7.006 0-2.774-.765-5.027-2.295-6.761-1.529-1.734-3.804-2.785-6.822-3.152-1.796-.203-6.956-.306-15.481-.306H18.112ZM0 .296h35.857c7.098 0 12.391.296 15.879.887 3.488.592 6.609 1.826 9.362 3.702 2.754 1.877 5.048 4.375 6.883 7.496 1.836 3.12 2.754 6.619 2.754 10.494 0 4.202-1.131 8.057-3.395 11.565-2.265 3.509-5.334 6.14-9.21 7.893 5.467 1.591 9.668 4.304 12.605 8.138 2.938 3.835 4.406 8.343 4.406 13.524 0 4.079-.949 8.045-2.845 11.901-1.898 3.854-4.488 6.936-7.772 9.239-3.284 2.306-7.333 3.724-12.146 4.253-3.019.327-10.3.53-21.844.613H0V.296ZM89.888 89.94H108V.296H89.888z" fill="#1A1919" mask="url(#b)"/></g></svg>