<svg xmlns="http://www.w3.org/2000/svg" width="102" height="101"><g fill="#000" fill-rule="evenodd"><path d="M0 0v22.5h3.1V3.1h19.4V0zM3.1 77.592H0v22.5h22.5v-3.1H3.1zM98.544 0h-19.4v3.1h19.4v19.4h3.1V0zM97.068 95.671H79.144v3.1h20.95v-.227h.078v-19.4h-3.1z"/><path d="M70.065 19.166c-4.19-4.811-10.863-7.061-19.4-6.673a25.476 25.476 0 0 0-14.587 5.354 9.092 9.092 0 0 0-3.88 1.319c-2.095 1.241-4.578 3.88-4.578 9.389a48.06 48.06 0 0 0 1.318 11.017 5.676 5.676 0 0 0-3.1 5.121v1.4a5.685 5.685 0 0 0 4.345 5.587c.432.103.878.13 1.319.078.676 3.67 2.4 7.066 4.966 9.777v4.19a2 2 0 0 0-1.241.543l-5.2 5.2a9.392 9.392 0 0 0 0 2.948c.26.344.494.707.7 1.086l7.211 10.781a5.288 5.288 0 0 0 3.957 2.405h.543a5.16 5.16 0 0 0 2.638-.7c1.086-.931 3.957-3.724 3.957-3.724l1.707-1.707 1.707 1.707 3.957 3.647a5.16 5.16 0 0 0 2.638.7h.543a5.158 5.158 0 0 0 3.963-2.406l2.79-4.19c.078-.078.155-.233.233-.31l3.414-5.121c.48-1.933.766-3.91.854-5.9l-4.576-4.579a1.831 1.831 0 0 0-1.241-.543v-4.19a19.315 19.315 0 0 0 4.966-9.777c.441.013.882-.013 1.319-.078a5.685 5.685 0 0 0 4.345-5.587v-1.4a5.5 5.5 0 0 0-1.707-4.025c1.785-9 .466-16.374-3.88-21.339ZM43.684 84.42a1.716 1.716 0 0 1-1.319.466c-.5-.025-.96-.284-1.241-.7l-7.371-11.1 2.948-2.949 11.328 9.938-4.345 4.345Zm7.138-6.983-10.474-9.232v-3.648a19.643 19.643 0 0 0 20.95 0v3.648l-10.476 9.232Zm17.07-4.345-7.371 11.1c-.28.416-.74.675-1.241.7-.486.04-.965-.13-1.319-.466l-4.345-4.351 11.328-9.932 2.948 2.949Zm4.112-27.08a1.8 1.8 0 0 1-1.319 1.862c-.155 0-.31.078-.466 0a3.62 3.62 0 0 0-3.8 3.026 15.771 15.771 0 0 1-31.037 0 3.759 3.759 0 0 0-3.8-3.026h-.466a1.8 1.8 0 0 1-1.319-1.862v-1.4a1.791 1.791 0 0 1 1.319-1.785 1.827 1.827 0 0 1 1.629.621c.314.459.782.79 1.319.931a2.777 2.777 0 0 0 2.328-.388 14.353 14.353 0 0 0 3.1-3.026 1.886 1.886 0 0 0-3.026-2.25c-.45.579-.943 1.124-1.474 1.629a5.7 5.7 0 0 0-2.017-1.086 45.458 45.458 0 0 1-1.319-10.708c0-2.871.931-4.966 2.638-6.052a6.82 6.82 0 0 1 2.871-.931c.495.006.972-.19 1.319-.543a21.513 21.513 0 0 1 12.654-4.807c7.294-.388 12.958 1.474 16.294 5.354 3.414 3.88 4.5 9.932 3.259 17.458a11.46 11.46 0 0 0-1.629.078l-1.94-4.19a1.941 1.941 0 0 0-2.25-1.086c-.155.078-17.691 4.5-24.985-4.656a1.88 1.88 0 1 0-2.949 2.33c7.526 9.311 22.347 7.294 27.312 6.285l1.4 3.336a3.189 3.189 0 0 0 3.569 1.862 2.994 2.994 0 0 1 1.4-.078 1.773 1.773 0 0 1 1.319 1.785v1.319l.066-.002Z" fill-rule="nonzero"/></g></svg>