<svg xmlns="http://www.w3.org/2000/svg" width="94" height="106"><g fill="#000" fill-rule="evenodd"><path d="M48.511 12.784V3.653h12.327V0H32.645v3.653h12.327v9.131C19.709 13.748-.133 34.758.349 60.034c.482 25.278 21.11 45.516 46.392 45.516 25.281 0 45.91-20.238 46.392-45.515.482-25.277-19.36-46.287-44.623-47.251h.001Zm-1.94 89.374a42.861 42.861 0 1 1 42.918-42.8c-.078 23.652-19.267 42.788-42.919 42.8h.001Z" fill-rule="nonzero"/><path d="M44.744 21.002h3.653v9.131h-3.653zM74.535 56.729h9.131v3.653h-9.131zM44.287 86.634h3.653v9.131h-3.653zM8.903 56.272h9.131v3.653H8.903zM65.086 37.246l6.457-6.456 2.583 2.583-6.457 6.456zM64.846 79.754l2.583-2.583 6.456 6.457-2.583 2.583zM18.383 83.308l6.457-6.456 2.583 2.583-6.457 6.456zM18.784 33.051l2.583-2.583 6.456 6.457-2.583 2.583z"/><path d="m56.045 33.33-9.246 19.975h-.457a5.136 5.136 0 1 0 5.136 5.136 5.441 5.441 0 0 0-1.372-3.538l7.765-20.773-1.826-.8Zm-9.7 28.079a3.082 3.082 0 1 1 3.079-3.079 3.224 3.224 0 0 1-3.082 3.079h.003Z" fill-rule="nonzero"/></g></svg>