<svg xmlns="http://www.w3.org/2000/svg" width="117" height="101"><g fill="#000" fill-rule="nonzero"><path d="M116.7 75.4V0H0v75.4h52.9v21.2H39.6v4H80v-4H63.7V75.4h53ZM59.8 96.7h-2.9V75.4h2.9v21.3ZM4.6 70.9V4.6h107.5v66.3H4.6Z"/><path d="M84.9 16.3a6.807 6.807 0 0 0-6.8 6.8 6.374 6.374 0 0 0 1.7 4.4L69.4 43.3a6.963 6.963 0 0 0-2.5-.5 6.713 6.713 0 0 0-4.5 1.8l-7-4.7c.197-.58.298-1.188.3-1.8a6.807 6.807 0 0 0-6.8-6.8 6.727 6.727 0 0 0-6.7 6.5l-9.6 2.6a6.623 6.623 0 0 0-6.2-4 6.8 6.8 0 1 0 0 13.6 6.669 6.669 0 0 0 6.6-5.4l10.2-2.7a6.637 6.637 0 0 0 10 1.6l7.1 4.8a7.772 7.772 0 0 0-.2 1.6 6.8 6.8 0 0 0 13.6 0 6.467 6.467 0 0 0-1.1-3.7L83.3 30a8.807 8.807 0 0 0 1.7.2 6.807 6.807 0 0 0 6.8-6.8 7.156 7.156 0 0 0-6.9-7.1ZM26.4 45.8a2.8 2.8 0 1 1 0-5.6 2.8 2.8 0 0 1 0 5.6Zm22.5-5a2.8 2.8 0 1 1 0-5.6 2.8 2.8 0 0 1 0 5.6Zm18 11.5a2.8 2.8 0 1 1 0-5.6 2.8 2.8 0 0 1 0 5.6Zm18-26.5a2.8 2.8 0 1 1 0-5.6 2.8 2.8 0 0 1 0 5.6Z"/></g></svg>