<svg xmlns="http://www.w3.org/2000/svg" width="173" height="121"><g fill="#000" fill-rule="evenodd"><path d="M118.506 87.321H98.801l-3.5-12.475h-45.4V61.124h-26.2V0h55.511l23.327 82.331h15.967v4.99ZM28.691 56.135h26.2v13.721h38.92L75.47 4.99H28.691v51.145ZM32.807 119.38c-10.127 0-18.336-8.21-18.336-18.337 0-10.127 8.21-18.337 18.337-18.337 10.127 0 18.336 8.209 18.337 18.336-.016 10.121-8.217 18.322-18.338 18.338Zm0-31.685a13.348 13.348 0 1 0 13.348 13.347c-.009-7.368-5.98-13.339-13.348-13.347ZM93.932 120.131c-7.096-.001-12.847-5.754-12.847-12.85 0-7.095 5.753-12.848 12.848-12.848 7.096 0 12.849 5.751 12.85 12.847a12.83 12.83 0 0 1-12.851 12.851Zm0-20.707a7.859 7.859 0 1 0 7.859 7.859 7.826 7.826 0 0 0-7.859-7.862v.003Z" fill-rule="nonzero"/><path d="M17.464 106.035H0v-49.9h26.2v4.99H4.99v39.918h12.474zM48.65 102.29h33.681v4.99H48.65zM118.507 107.28h-13.722a2.495 2.495 0 0 1 0-4.99h13.722a2.495 2.495 0 0 1 0 4.99Z"/><path d="M169.651 69.857h-37.423V36.176h37.423v33.681Zm-32.433-4.99h27.444V41.166h-27.444v23.701ZM169.651 33.681h-37.423V0h37.423v33.681Zm-32.433-4.99h27.444V4.99h-27.444v23.701Z" fill-rule="nonzero"/><path d="M85.2 74.846a2.4 2.4 0 0 1-2.37-1.867l-14.969-58.01h-29.19v42.41a2.495 2.495 0 0 1-4.99 0v-47.4h38.172l15.842 61.748a2.4 2.4 0 0 1-1.746 2.994c-.25 0-.499.125-.749.125Z"/><path d="M129.734 109.775h-13.722V27.444h13.722v82.331Zm-8.732-4.99h3.742V32.434h-3.742v72.351Z" fill-rule="nonzero"/><path d="M169.652 78.589h-42.413a2.495 2.495 0 0 1 0-4.99h42.413a2.495 2.495 0 1 1 0 4.99ZM50.521 42.163a2.463 2.463 0 0 1-1.746-.748 2.412 2.412 0 0 1 0-3.493l9.979-9.979a2.47 2.47 0 0 1 3.493 3.493l-9.979 9.979a2.463 2.463 0 0 1-1.747.748ZM55.511 47.154a2.463 2.463 0 0 1-1.746-.748 2.412 2.412 0 0 1 0-3.493l7.609-7.609a2.47 2.47 0 1 1 3.493 3.493l-7.609 7.609a2.463 2.463 0 0 1-1.747.748Z"/></g></svg>