<?xml version="1.0" encoding="utf-8"?>
<!-- Generator: Adobe Illustrator 23.0.2, SVG Export Plug-In . SVG Version: 6.00 Build 0)  -->
<svg version="1.1" id="Layer_1" xmlns="http://www.w3.org/2000/svg" xmlns:xlink="http://www.w3.org/1999/xlink" x="0px" y="0px"
	 viewBox="0 0 333 159" style="enable-background:new 0 0 333 159;" xml:space="preserve">
<style type="text/css">
	.st0{enable-background:new    ;}
	.st1{fill:none;stroke:#000000;stroke-width:2.814;}
</style>
<g>
	<g>
		<path d="M333,159H0V0h333V159z M12,147h309V12H12V147z"/>
	</g>
	<g>
		<rect x="6" y="41.8" width="321" height="21"/>
	</g>
	<g class="st0">
		<path d="M28.7,112.8l10.9-28.4h4.1l11.6,28.4H51l-3.3-8.6H35.8l-3.1,8.6H28.7z M36.9,101.1h9.6l-3-7.9c-0.9-2.4-1.6-4.4-2-5.9
			c-0.4,1.8-0.9,3.6-1.5,5.4L36.9,101.1z"/>
		<path d="M58.1,112.8V84.3h10.7c2.2,0,3.9,0.3,5.2,0.9c1.3,0.6,2.3,1.5,3.1,2.7c0.7,1.2,1.1,2.4,1.1,3.8c0,1.2-0.3,2.4-1,3.4
			c-0.7,1.1-1.7,1.9-3,2.6c1.7,0.5,3,1.4,4,2.6c0.9,1.2,1.4,2.7,1.4,4.3c0,1.3-0.3,2.6-0.8,3.7c-0.6,1.1-1.3,2-2.1,2.6
			s-1.9,1.1-3.1,1.4c-1.2,0.3-2.8,0.5-4.6,0.5H58.1z M61.9,96.3H68c1.7,0,2.9-0.1,3.6-0.3c1-0.3,1.7-0.8,2.2-1.4
			c0.5-0.7,0.7-1.5,0.7-2.5c0-0.9-0.2-1.8-0.7-2.5c-0.5-0.7-1.1-1.2-1.9-1.5c-0.8-0.3-2.3-0.4-4.3-0.4h-5.7V96.3z M61.9,109.4H69
			c1.2,0,2.1,0,2.6-0.1c0.9-0.2,1.6-0.4,2.2-0.8c0.6-0.4,1.1-0.9,1.4-1.6c0.4-0.7,0.6-1.5,0.6-2.4c0-1.1-0.3-2-0.8-2.8
			c-0.5-0.8-1.3-1.3-2.3-1.7c-1-0.3-2.4-0.5-4.2-0.5h-6.6V109.4z"/>
		<path d="M105.1,102.8l3.8,1c-0.8,3.1-2.2,5.4-4.3,7.1c-2.1,1.6-4.6,2.4-7.5,2.4c-3.1,0-5.6-0.6-7.5-1.9c-1.9-1.2-3.4-3.1-4.4-5.4
			c-1-2.4-1.5-4.9-1.5-7.6c0-3,0.6-5.5,1.7-7.8c1.1-2.2,2.7-3.9,4.8-5c2.1-1.1,4.4-1.7,6.9-1.7c2.8,0,5.2,0.7,7.2,2.2
			c1.9,1.4,3.3,3.5,4.1,6.1l-3.7,0.9c-0.7-2.1-1.6-3.6-2.9-4.5c-1.3-0.9-2.8-1.4-4.7-1.4c-2.2,0-4,0.5-5.5,1.6
			c-1.5,1-2.5,2.5-3.1,4.2c-0.6,1.8-0.9,3.6-0.9,5.5c0,2.4,0.4,4.5,1.1,6.3c0.7,1.8,1.8,3.2,3.3,4c1.5,0.9,3.1,1.3,4.8,1.3
			c2.1,0,3.9-0.6,5.4-1.8C103.6,107,104.5,105.2,105.1,102.8z"/>
		<path d="M122.7,104.2v-3.5h10.7v3.5H122.7z"/>
		<path d="M160.5,112.8H157V90.5c-0.8,0.8-1.9,1.6-3.3,2.4c-1.4,0.8-2.6,1.4-3.7,1.8v-3.4c2-0.9,3.7-2,5.1-3.3
			c1.5-1.3,2.5-2.6,3.1-3.8h2.3V112.8z"/>
		<path d="M187.8,109.4v3.4H169c0-0.8,0.1-1.6,0.4-2.4c0.5-1.3,1.2-2.5,2.3-3.8s2.6-2.7,4.6-4.3c3.1-2.5,5.2-4.5,6.3-6
			c1.1-1.5,1.6-2.9,1.6-4.2c0-1.4-0.5-2.6-1.5-3.5c-1-1-2.3-1.4-3.9-1.4c-1.7,0-3,0.5-4,1.5c-1,1-1.5,2.4-1.5,4.2l-3.6-0.4
			c0.2-2.7,1.2-4.7,2.8-6.1c1.6-1.4,3.8-2.1,6.5-2.1c2.7,0,4.9,0.8,6.5,2.3c1.6,1.5,2.4,3.4,2.4,5.6c0,1.1-0.2,2.3-0.7,3.4
			c-0.5,1.1-1.2,2.3-2.3,3.5c-1.1,1.2-2.9,2.9-5.4,5c-2.1,1.8-3.4,3-4,3.6c-0.6,0.6-1.1,1.3-1.5,1.9H187.8z"/>
		<path d="M191.6,105.3l3.5-0.5c0.4,2,1.1,3.4,2,4.3s2.1,1.3,3.5,1.3c1.6,0,3-0.6,4.2-1.7c1.1-1.1,1.7-2.5,1.7-4.2
			c0-1.6-0.5-2.9-1.6-4c-1-1-2.4-1.6-4-1.6c-0.7,0-1.5,0.1-2.5,0.4l0.4-3.1c0.2,0,0.4,0,0.6,0c1.5,0,2.8-0.4,4-1.2
			c1.2-0.8,1.8-2,1.8-3.6c0-1.3-0.4-2.3-1.3-3.2c-0.9-0.8-2-1.3-3.4-1.3c-1.4,0-2.5,0.4-3.4,1.3s-1.5,2.1-1.7,3.8l-3.5-0.6
			c0.4-2.3,1.4-4.2,2.9-5.4c1.5-1.3,3.4-1.9,5.6-1.9c1.6,0,3,0.3,4.3,1c1.3,0.7,2.3,1.6,3,2.7c0.7,1.2,1,2.4,1,3.7
			c0,1.2-0.3,2.3-1,3.4c-0.7,1-1.6,1.8-2.9,2.4c1.7,0.4,3,1.2,3.9,2.4c0.9,1.2,1.4,2.8,1.4,4.6c0,2.5-0.9,4.6-2.7,6.3
			c-1.8,1.7-4.1,2.6-6.9,2.6c-2.5,0-4.6-0.7-6.2-2.2C192.7,109.6,191.8,107.6,191.6,105.3z"/>
	</g>
	<g class="st0">
		<path class="st1" d="M28.7,112.8l10.9-28.4h4.1l11.6,28.4H51l-3.3-8.6H35.8l-3.1,8.6H28.7z M36.9,101.1h9.6l-3-7.9
			c-0.9-2.4-1.6-4.4-2-5.9c-0.4,1.8-0.9,3.6-1.5,5.4L36.9,101.1z"/>
		<path class="st1" d="M58.1,112.8V84.3h10.7c2.2,0,3.9,0.3,5.2,0.9c1.3,0.6,2.3,1.5,3.1,2.7c0.7,1.2,1.1,2.4,1.1,3.8
			c0,1.2-0.3,2.4-1,3.4c-0.7,1.1-1.7,1.9-3,2.6c1.7,0.5,3,1.4,4,2.6c0.9,1.2,1.4,2.7,1.4,4.3c0,1.3-0.3,2.6-0.8,3.7
			c-0.6,1.1-1.3,2-2.1,2.6s-1.9,1.1-3.1,1.4c-1.2,0.3-2.8,0.5-4.6,0.5H58.1z M61.9,96.3H68c1.7,0,2.9-0.1,3.6-0.3
			c1-0.3,1.7-0.8,2.2-1.4c0.5-0.7,0.7-1.5,0.7-2.5c0-0.9-0.2-1.8-0.7-2.5c-0.5-0.7-1.1-1.2-1.9-1.5c-0.8-0.3-2.3-0.4-4.3-0.4h-5.7
			V96.3z M61.9,109.4H69c1.2,0,2.1,0,2.6-0.1c0.9-0.2,1.6-0.4,2.2-0.8c0.6-0.4,1.1-0.9,1.4-1.6c0.4-0.7,0.6-1.5,0.6-2.4
			c0-1.1-0.3-2-0.8-2.8c-0.5-0.8-1.3-1.3-2.3-1.7c-1-0.3-2.4-0.5-4.2-0.5h-6.6V109.4z"/>
		<path class="st1" d="M105.1,102.8l3.8,1c-0.8,3.1-2.2,5.4-4.3,7.1c-2.1,1.6-4.6,2.4-7.5,2.4c-3.1,0-5.6-0.6-7.5-1.9
			c-1.9-1.2-3.4-3.1-4.4-5.4c-1-2.4-1.5-4.9-1.5-7.6c0-3,0.6-5.5,1.7-7.8c1.1-2.2,2.7-3.9,4.8-5c2.1-1.1,4.4-1.7,6.9-1.7
			c2.8,0,5.2,0.7,7.2,2.2c1.9,1.4,3.3,3.5,4.1,6.1l-3.7,0.9c-0.7-2.1-1.6-3.6-2.9-4.5c-1.3-0.9-2.8-1.4-4.7-1.4
			c-2.2,0-4,0.5-5.5,1.6c-1.5,1-2.5,2.5-3.1,4.2c-0.6,1.8-0.9,3.6-0.9,5.5c0,2.4,0.4,4.5,1.1,6.3c0.7,1.8,1.8,3.2,3.3,4
			c1.5,0.9,3.1,1.3,4.8,1.3c2.1,0,3.9-0.6,5.4-1.8C103.6,107,104.5,105.2,105.1,102.8z"/>
		<path class="st1" d="M122.7,104.2v-3.5h10.7v3.5H122.7z"/>
		<path class="st1" d="M160.5,112.8H157V90.5c-0.8,0.8-1.9,1.6-3.3,2.4c-1.4,0.8-2.6,1.4-3.7,1.8v-3.4c2-0.9,3.7-2,5.1-3.3
			c1.5-1.3,2.5-2.6,3.1-3.8h2.3V112.8z"/>
		<path class="st1" d="M187.8,109.4v3.4H169c0-0.8,0.1-1.6,0.4-2.4c0.5-1.3,1.2-2.5,2.3-3.8s2.6-2.7,4.6-4.3c3.1-2.5,5.2-4.5,6.3-6
			c1.1-1.5,1.6-2.9,1.6-4.2c0-1.4-0.5-2.6-1.5-3.5c-1-1-2.3-1.4-3.9-1.4c-1.7,0-3,0.5-4,1.5c-1,1-1.5,2.4-1.5,4.2l-3.6-0.4
			c0.2-2.7,1.2-4.7,2.8-6.1c1.6-1.4,3.8-2.1,6.5-2.1c2.7,0,4.9,0.8,6.5,2.3c1.6,1.5,2.4,3.4,2.4,5.6c0,1.1-0.2,2.3-0.7,3.4
			c-0.5,1.1-1.2,2.3-2.3,3.5c-1.1,1.2-2.9,2.9-5.4,5c-2.1,1.8-3.4,3-4,3.6c-0.6,0.6-1.1,1.3-1.5,1.9H187.8z"/>
		<path class="st1" d="M191.6,105.3l3.5-0.5c0.4,2,1.1,3.4,2,4.3s2.1,1.3,3.5,1.3c1.6,0,3-0.6,4.2-1.7c1.1-1.1,1.7-2.5,1.7-4.2
			c0-1.6-0.5-2.9-1.6-4c-1-1-2.4-1.6-4-1.6c-0.7,0-1.5,0.1-2.5,0.4l0.4-3.1c0.2,0,0.4,0,0.6,0c1.5,0,2.8-0.4,4-1.2
			c1.2-0.8,1.8-2,1.8-3.6c0-1.3-0.4-2.3-1.3-3.2c-0.9-0.8-2-1.3-3.4-1.3c-1.4,0-2.5,0.4-3.4,1.3s-1.5,2.1-1.7,3.8l-3.5-0.6
			c0.4-2.3,1.4-4.2,2.9-5.4c1.5-1.3,3.4-1.9,5.6-1.9c1.6,0,3,0.3,4.3,1c1.3,0.7,2.3,1.6,3,2.7c0.7,1.2,1,2.4,1,3.7
			c0,1.2-0.3,2.3-1,3.4c-0.7,1-1.6,1.8-2.9,2.4c1.7,0.4,3,1.2,3.9,2.4c0.9,1.2,1.4,2.8,1.4,4.6c0,2.5-0.9,4.6-2.7,6.3
			c-1.8,1.7-4.1,2.6-6.9,2.6c-2.5,0-4.6-0.7-6.2-2.2C192.7,109.6,191.8,107.6,191.6,105.3z"/>
	</g>
</g>
</svg>
