<svg xmlns="http://www.w3.org/2000/svg" width="961" height="813"><g fill="#000" fill-rule="evenodd"><path d="M468.07 795.684h24.209V621.083H468.07v174.601ZM21.815 21.964h916.711v577.813h-216.52v-398.84h26.219L594.694 25.398 472.049 179.647 349.341 25.319 198.846 200.937h23.246v398.84H21.815V21.964Zm286.279 577.813h82.022v-85.522h-82.022v85.522Zm245.888 0h82.022v-85.522h-82.022v85.522Zm-65.005-415.174L595.292 50.892l116.946 133.711H488.977Zm216.695 16.334v398.84h-53.334V497.921h-114.69v101.856h-57.432v-398.84h225.456Zm-471.318-16.334L348.869 50.972l106.252 133.631H234.354Zm4.072 16.334h225.456v398.84H406.45V497.921H291.76v101.856h-53.334v-398.84Zm721.415 420.146V.656H.5v620.427h443.36v174.601H325.853V812.5h332.845v-16.816H516.481V621.083h443.36Z"/><path d="M279.313 283.037h44.615v-44.185h-44.615v44.185Zm-16.145 16.145h76.906v-76.475h-76.906v76.475ZM372.479 283.037h44.616v-44.185h-44.616v44.185Zm-16.145 16.145h76.906v-76.475h-76.906v76.475ZM279.313 371.52h44.615v-44.184h-44.615v44.184Zm-16.145 16.146h76.906v-76.475h-76.906v76.475ZM372.479 371.52h44.616v-44.184h-44.616v44.184Zm-16.145 16.146h76.906v-76.475h-76.906v76.475ZM279.313 460.004h44.615v-44.185h-44.615v44.185Zm-16.145 16.145h76.906v-76.475h-76.906v76.475ZM372.479 460.004h44.616v-44.185h-44.616v44.185Zm-16.145 16.145h76.906v-76.475h-76.906v76.475ZM522.355 283.037h44.616v-44.185h-44.616v44.185Zm-16.144 16.145h76.904v-76.475h-76.904v76.475ZM615.521 283.037h44.617v-44.185h-44.617v44.185Zm-16.144 16.145h76.905v-76.475h-76.905v76.475ZM522.355 371.52h44.616v-44.184h-44.616v44.184Zm-16.144 16.146h76.904v-76.475h-76.904v76.475ZM619.553 371.779h45.137v-44.702h-45.137v44.702Zm-16.334 16.334h77.805v-77.37h-77.805v77.37ZM522.355 460.004h44.616v-44.185h-44.616v44.185Zm-16.144 16.145h76.904v-76.475h-76.904v76.475ZM615.521 460.004h44.617v-44.185h-44.617v44.185Zm-16.144 16.145h76.905v-76.475h-76.905v76.475Z"/></g></svg>