<svg xmlns="http://www.w3.org/2000/svg" width="149" height="113"><g fill="#000" fill-rule="evenodd"><path d="M116.12 52.84 19.47.92c-.5-.27-1.1-.32-1.64-.14l-.87.32-5.15 10.8c-.46.16-.87.48-1.12.94-.28.53-.3 1.12-.11 1.64L1.17 34.22c-.25.53-.27 1.15-.05 1.7l.39.88.82.31c.36.14 3.08 1.3 22.06 11.23v21.25L5.26 82.17V71.55c0-1.1-.9-2-2-2s-2 .9-2 2v40.81l22.81-14.75 25-17.04V61.24c1.29.68 1.53.8 2.61 1.4 18.44 10.13 21.77 11.55 22.95 11.55.22 0 .36-.05.51-.1l.83-.28.04-.09 10.02-4.29L98.8 76.2a2.108 2.108 0 0 0 2.83-.82l5.88-10.46c.28-.5.35-1.1.18-1.64l-.3-.88-.76-.39c-.14-.07-.53-.27-1.45-.76l10.77-4.61c.74-.32 1.24-1.04 1.27-1.85.04-.8-.39-1.57-1.1-1.95ZM99.05 71.81l-8.08-4.28 9.73-4.12c1.01.53 1.78.94 2.37 1.25l-4.02 7.15Zm-53.99 6.64L21.85 94.28 5.25 105V86.95l23.13-15.21V51.23l16.68 8.56v18.66Zm29.36-8.4c-1.32-.56-5.88-2.71-20.82-10.92-1.4-.77-1.4-.77-4.01-2.13-2.58-1.35-7.75-4.04-19.48-10.19C17.95 40.43 9.35 36.02 5.6 34.21l8.29-17.38c48.74 26.23 71.5 38.41 82.03 44.02l-21.5 9.2Zm26.22-11.21c-9.02-4.79-31.18-16.64-85.03-45.62l3.73-7.83 91.43 49.11-10.13 4.34Z" fill-rule="nonzero"/><path d="m148.3 91.83-15.36-17.95-.48 7.79-22.74-11.4c-.99-.5-2.19-.09-2.68.89-.49.99-.09 2.19.89 2.68l22.74 11.4-5.94 5.06 23.57 1.53Z"/></g></svg>