<svg xmlns="http://www.w3.org/2000/svg" width="954" height="940"><g fill="#000" fill-rule="evenodd"><path d="M837.285 160.423c-4.139-1.612-16.803-7.005-53.699-24.803-3.701-1.787-3.701-1.787-10.587-4.938-6.785-3.105-20.36-9.317-51.154-23.498-28.938-13.325-49.81-22.775-60.943-27.602l18.486-34.061c115.753 54.712 175.247 82.708 205.658 96.962l-47.761 17.94Zm-79.95 46.222-59.258 35.498-39.61 22.489v-34.037l60.751-35.083v-67.613l38.117 17.18v61.566ZM693.717 19.122 924.09 127.817l-17.859 6.709c-24.047-11.234-81.812-38.362-219.108-103.256l6.594-12.148ZM901.026 163.96l-11.524-5.364 16.701-6.219 1.72.799-6.897 10.784ZM625.402 589.813h16.19V204.51h-16.19v385.303ZM763.01 685.33H477.028l18.76-77.708H763.01v77.708ZM693.896 1.306c-4.015-1.864-8.796-.273-10.88 3.592L642.47 79.601a8.336 8.336 0 0 0-.37 7.004l1.591 3.631 3.545 1.189c.59.198 6.957 2.527 55.792 24.93v69.807l-44.561 25.729v-19.015h-.686v-4.555h-48.567v403.111H483.039l-26.57 110.086H779.2V591.432H657.781V283.638l48.45-27.513 67.293-40.308v-67.069c.864.408 1.701.812 3.029 1.451 23.658 11.415 40.603 19.309 50.367 23.464 4.13 1.757 7.952 3.384 11.165 3.384 1.423 0 2.728-.32 3.885-1.09l25.715-9.659 32.801 15.268a8.42 8.42 0 0 0 3.459.749c2.761 0 5.42-1.378 7.032-3.865l15.45-24.156a8.332 8.332 0 0 0 .942-6.877l-1.031-3.15 20.802-7.814a8.333 8.333 0 0 0 5.413-7.48l.067-5.595L693.896 1.306ZM516.805 845.947c-14.58 0-26.443-11.863-26.443-26.443 0-14.581 11.863-26.444 26.443-26.444 14.58 0 26.444 11.863 26.444 26.444 0 14.58-11.864 26.443-26.444 26.443Zm0-69.076c-23.508 0-42.632 19.124-42.632 42.633 0 23.508 19.124 42.632 42.632 42.632 23.509 0 42.633-19.124 42.633-42.632 0-23.509-19.124-42.633-42.633-42.633Z"/><path d="M516.805 880.485c-33.624 0-60.981-27.357-60.981-60.981 0-33.625 27.357-60.982 60.981-60.982s60.982 27.357 60.982 60.982c0 33.624-27.358 60.981-60.982 60.981Zm0-138.152c-42.553 0-77.17 34.617-77.17 77.171 0 42.553 34.617 77.17 77.17 77.17 42.554 0 77.171-34.617 77.171-77.17 0-42.554-34.617-77.171-77.171-77.171Z"/><path d="M762.802 771.992h-150.46c-4.293-10.969-10.434-22.334-19.249-32.347h169.709v32.347Zm-66.607 71.378h35.202v-52.333h-35.202v52.333ZM419.76 771.992H16.689v-32.347H441.34c-9.682 10.02-16.612 21.386-21.58 32.347ZM50.95 843.37h35.202v-52.333H50.95v52.333Zm468.711-134.19c-23.988 0-42.825 5.62-57.682 14.276H.5v64.725h34.262v71.378h25.695v63.751H28.58v16.19h79.942v-16.19H76.646v-63.751h25.696v-71.378h311.231c-5.412 17.239-6.199 30.559-6.217 30.94l16.17.778c.013-.24 1.374-24.493 14.151-48.163 16.607-30.766 44.192-46.367 81.984-46.367 84.891 0 86.409 90.328 86.432 94.16l16.189-.051c-.002-.384-.198-13.88-4.703-31.297h62.428v71.378H705.7v63.751h-31.875v16.19h79.94v-16.19h-31.876v-63.751h25.698v-71.378h31.404v-64.725H574.076c-13.814-8.659-31.546-14.276-54.415-14.276Z"/></g></svg>