<svg xmlns="http://www.w3.org/2000/svg" width="149" height="147"><g fill="#000" fill-rule="evenodd"><path d="M14 41.2h4v102h-4zM73 41.2h4v102h-4zM132 41.2h4v102h-4z"/><path d="M43 67.2H24v-19h19v19Zm-15-4h11v-11H28v11ZM66 67.2H47v-19h19v19Zm-15-4h11v-11H51v11ZM43 89.2H24v-19h19v19Zm-15-4h11v-11H28v11ZM66 89.2H47v-19h19v19Zm-15-4h11v-11H51v11ZM43 111.2H24v-19h19v19Zm-15-4h11v-11H28v11ZM66 111.2H47v-19h19v19Zm-15-4h11v-11H51v11ZM103 67.2H84v-19h19v19Zm-15-4h11v-11H88v11ZM126 67.2h-19v-19h19v19Zm-15-4h11v-11h-11v11ZM103 89.2H84v-19h19v19Zm-15-4h11v-11H88v11ZM126 89.2h-19v-19h19v19Zm-15-4h11v-11h-11v11ZM103 111.2H84v-19h19v19Zm-15-4h11v-11H88v11Z" fill-rule="nonzero"/><path d="M119 143.2h-4v-23H95v23h-4v-27h28zM59 143.2h-4v-23H35v23h-4v-27h28z"/><path d="M126 111.2h-19v-19h19v19Zm-15-4h11v-11h-11v11ZM79.1 43.2H8.3L45.1 0l34 43.2Zm-62.1-4h53.9l-26-32.9L17 39.2Z" fill-rule="nonzero"/><path d="M142.4 43.2H70.9l34-43.2 37.5 43.2Zm-63.3-4h54.5L105.1 6.3l-26 32.9Z" fill-rule="nonzero"/><path d="M0 142.2h149v4H0z"/></g></svg>