<svg xmlns="http://www.w3.org/2000/svg" width="166" height="125"><g fill="#000" fill-rule="evenodd"><path d="M153 125H64V73H36v52H16V52h4v69h12V69h36v52h81V50.5h4z"/><path d="M28 58c-4.9 0-8.9-1.5-11.8-4.4C10 47.3 10 36.4 10 29.2v-1.3l.1-.4L19.6 0h128.9l.4 1.5c7.4 26.5 7.4 26.5 7.4 26.7.7 13.1-1 21.2-5 25.5-3.5 3.6-8.2 4.1-12.8 4.1a19.788 19.788 0 0 1-18.1-12 19.65 19.65 0 0 1-36.2 0 19.619 19.619 0 0 1-36.2-.1c-2.9 6.7-9.7 11.5-17.9 12.1-.696.102-1.397.17-2.1.2ZM14 28.5v.7c0 6.6 0 16.5 5 21.5 2.5 2.5 5.9 3.5 10.6 3.2 9-.6 15.7-7.3 15.8-15.6l-.4-2.2 3.2-.1h2v2.1a15.7 15.7 0 1 0 31.4-.1v-2l2.9-.1h2V38a15.7 15.7 0 1 0 31.4-.1v-2l2.9-.1h2v2.1a15.663 15.663 0 0 0 15.7 15.7c4.3 0 7.6-.5 9.9-2.9 3.2-3.4 4.5-10.7 4-22.3-.5-1.9-4.4-16-6.9-24.7h-123L14 28.5ZM137 105H86V70h51v35Zm-47-4h43V74H90v27Z" fill-rule="nonzero"/><path d="M0 121h20v4H0zM146 121h20v4h-20z"/><g><path d="M14 26h41v4H14z"/></g><g><path d="M67 26h27v4H67z"/></g><g><path d="M112 26h41v4h-41z"/></g></g></svg>