<?xml version="1.0" encoding="utf-8"?>
<!-- Generator: Adobe Illustrator 23.0.2, SVG Export Plug-In . SVG Version: 6.00 Build 0)  -->
<svg version="1.1" id="Layer_1" xmlns="http://www.w3.org/2000/svg" xmlns:xlink="http://www.w3.org/1999/xlink" x="0px" y="0px"
	 viewBox="0 0 329 287" style="enable-background:new 0 0 329 287;" xml:space="preserve">
<style type="text/css">
	.st0{fill-rule:evenodd;clip-rule:evenodd;}
</style>
<g>
	<g transform="translate(5 8)">
		<g>
			<path d="M159.8,278.8C159.8,278.8,159.8,278.8,159.8,278.8h-0.7c-2.4,0-4.7-0.8-6.6-2.2L22.1,182l1.2-3.2
				c16.2-43-26-91.2-26.5-91.7L-5,85l1-2.6c0.2-0.5,5.4-13.5,32.9-65.1l3.9-7.4l127,232.8L286.1,10l3.9,7.4
				c27.5,51.6,32.7,64.6,32.9,65.1l1,2.6l-1.8,2.1c-0.4,0.5-42.7,48.8-26.5,91.7l1.2,3.2l-130.5,94.7
				C164.4,278.1,162.2,278.8,159.8,278.8z M32.9,178.7l124.9,90.6c0.4,0.3,0.8,0.4,1.3,0.4h0.7c0,0,0,0,0,0c0.5,0,0.9-0.1,1.3-0.4
				l124.9-90.7c-13.4-42,19-85.1,27.4-95.4C311.1,78,304,62.9,286,29L159.8,261.6L32.9,29C15,62.9,7.9,78,5.5,83.3
				C13.9,93.6,46.3,136.7,32.9,178.7z"/>
		</g>
		<g>
			<path d="M222.6,88.9c-1.9,0-3.8-0.5-5.4-1.6l-57.6-36.5L102.4,87c-4.9,3.1-11.4,1.6-14.5-3.3c-1.1-1.7-1.6-3.6-1.6-5.6V2.1
				C86.2-2.8,90-6.8,94.9-7c1.9-0.1,3.7,0.4,5.3,1.5l59.4,37.7l56.8-36c1.7-1.1,3.7-1.7,5.7-1.7c0,0,0,0,0.1,0
				c2.9,0,5.5,1.1,7.6,3.2c2,2,3.1,4.7,3.1,7.6v73.6c0,1.9-0.6,3.8-1.6,5.5C229.3,87.3,226,88.9,222.6,88.9z M225.7,73.8L225.7,73.8
				C225.7,73.9,225.7,73.8,225.7,73.8z M174.6,41.5l42.2,26.7V14.7L174.6,41.5z M102.3,14.7v53.5l42.2-26.7L102.3,14.7z M225,9.5
				L225,9.5C225,9.6,225,9.6,225,9.5z M216.8,5.1C216.8,5.1,216.8,5.1,216.8,5.1L216.8,5.1z"/>
		</g>
		<g>
			<path d="M159.5,100.4c-6.6,0-12.1-5.7-12.1-12.8s5.4-12.8,12.1-12.8c6.6,0,12,5.7,12,12.8S166.1,100.4,159.5,100.4z M159.5,83.8
				c-1.7,0-3.1,1.7-3.1,3.8s1.4,3.8,3.1,3.8c1.7,0,3-1.7,3-3.8S161.1,83.8,159.5,83.8z"/>
		</g>
		<g>
			<path d="M159.5,179.4c-6.6,0-12.1-5.7-12.1-12.8s5.4-12.8,12.1-12.8c6.6,0,12,5.7,12,12.8S166.1,179.4,159.5,179.4z M159.5,162.8
				c-1.7,0-3.1,1.7-3.1,3.8s1.4,3.8,3.1,3.8c1.7,0,3-1.7,3-3.8S161.1,162.8,159.5,162.8z"/>
		</g>
		<g>
			<path d="M159.5,139.9c-6.6,0-12.1-5.7-12.1-12.8s5.4-12.8,12.1-12.8c6.6,0,12,5.7,12,12.8S166.1,139.9,159.5,139.9z M159.5,123.3
				c-1.7,0-3.1,1.7-3.1,3.8s1.4,3.8,3.1,3.8c1.7,0,3-1.7,3-3.8S161.1,123.3,159.5,123.3z"/>
		</g>
	</g>
	<g>
		<path class="st0" d="M33.5,67.5l55.2,106.2l7.8,15c1.8,3.4,7,0.4,5.2-3L46.5,79.5l-7.8-15C36.9,61,31.7,64.1,33.5,67.5L33.5,67.5z
			 M284.1,64.5L229,170.7l-7.8,15c-1.8,3.4,3.4,6.5,5.2,3l55.1-106.2l7.8-14.9C291.1,64.1,285.9,61.1,284.1,64.5L284.1,64.5z"/>
	</g>
</g>
</svg>
