<svg xmlns="http://www.w3.org/2000/svg" width="99" height="142"><g fill="#000" fill-rule="evenodd"><path d="M29.3 73H40c.1 0 .1 0 .2.1l6 9.6v.1c-1.5-.9-3.1-1.9-4.6-2.8-.9 1.5-1.8 3-2.7 4.6h9.8v10.1H40a4.366 4.366 0 0 1-3.7-2.5c-.8-1.7-1.8-3.4-2.6-5.1-.9-1.6-1.7-3.3-2.6-4.9a3.079 3.079 0 0 1-.3-1.3 2.73 2.73 0 0 1 .5-1.8c.7-1.2 1.4-2.3 2.1-3.5a.1.1 0 0 1 .1-.1c-1.6-.9-2.9-1.7-4.2-2.5Zm5 2.1c-.9 1.5-1.7 2.9-2.6 4.4a2.307 2.307 0 0 0-.1 2.4c1.2 2.4 2.5 4.8 3.8 7.2 0 .1.1.1.1.2v-.1c.06-.467.232-.913.5-1.3 1.7-2.9 3.4-5.9 5.1-8.8a.1.1 0 0 1 .1-.1l2.4 1.5v-.1c-1.3-2.1-2.6-4.2-3.9-6.4 0-.1-.1-.1-.2-.1h-7.3a22.47 22.47 0 0 1 2.1 1.2Zm13.6 10.3h-9.3c-.1 0-.1 0-.2.1-.5.9-1 1.7-1.5 2.6a3.19 3.19 0 0 0-.4 2.1c.109.627.311 1.233.6 1.8a5.5 5.5 0 0 0 .7.9c.474.395 1.016.7 1.6.9.288.114.591.181.9.2h7.6v-8.6Z"/><path d="M40.3 95.2h-.5a5.016 5.016 0 0 1-4.1-2.8c-.6-1.2-1.2-2.4-1.8-3.5-.3-.5-.5-1-.8-1.5-.5-.9-1-1.8-1.4-2.7-.4-.7-.8-1.5-1.2-2.2a4.8 4.8 0 0 1-.4-1.5 3.845 3.845 0 0 1 .5-2.1c.5-.8 1-1.6 1.5-2.5l.4-.7-3.8-2.3.1-.8H40a.864.864 0 0 1 .6.3l6 9.8v1.1l-4.9-3-2 3.4h9.4v11.1l-8.8-.1Zm-1.6-9.3L37.5 88l-.2.3a2.972 2.972 0 0 0-.4 1.8c.06.561.23 1.105.5 1.6.176.284.376.552.6.8.391.38.873.656 1.4.8a2.2 2.2 0 0 0 .8.1h7.2v-7.5h-8.7ZM34 74.3l1 .6-.3.5-.7 1.2c-.6 1-1.2 2.1-1.8 3.1a1.857 1.857 0 0 0-.1 1.9c.9 1.7 1.8 3.5 2.7 5.2l.6 1.1c.1-.1.1-.2.2-.4l5.2-8.9.3-.4 1.1.6-2.8-4.6h-2.2l-3.2.1Zm10.3 6.8.4.2-.4-.7v.5ZM31 73.5l.7.4v-.4H31Z" fill-rule="nonzero"/><path d="m65 63.3-1.2 2.1c-1.3 2.4-2.7 4.8-4 7.2 0 .1-.1.1-.2.1-.7 0-1.4.1-2.1.1-1.1.1-2.3.1-3.4.2-1.3.1-2.7.1-4 .2-.6 0-1.2.1-1.8.1h-.1c1.6-.9 3.1-1.8 4.7-2.7-.9-1.5-1.8-3-2.7-4.6-1.6 2.9-3.2 5.7-4.8 8.6-3-1.6-5.9-3.3-8.9-4.9a.349.349 0 0 1 .1-.2c1.4-2.4 2.7-4.9 4.1-7.3.25-.435.59-.81 1-1.1a4.074 4.074 0 0 1 2.2-1 4.3 4.3 0 0 1 1.6 0c.3 0 .6.1.8.1h9.8c.2 0 .4.1.7.1a2.7 2.7 0 0 1 2.1 1.6c.7 1.2 1.4 2.3 2.1 3.5a.1.1 0 0 0 .1.1c1.3-.7 2.6-1.5 3.9-2.2Zm-4.3 3.4-.1-.1c-.5-.8-.9-1.5-1.3-2.3a18.575 18.575 0 0 1-1.1-1.9 2.586 2.586 0 0 0-1.4-1.1c-.2-.1-.5-.1-.7-.2h-8.3a.1.1 0 0 1 .1.1l.6.6.6.9c.4.6.8 1.2 1.2 1.9 1.1 1.9 2.2 3.7 3.3 5.6.2.3.3.5.5.8-.8.5-1.6.9-2.4 1.4h1.2c1.3-.1 2.5-.1 3.8-.2.9 0 1.8-.1 2.7-.1.1 0 .1 0 .1-.1 1.2-2.1 2.3-4.2 3.5-6.3v-.1a6.963 6.963 0 0 0-2.3 1.1Zm-15.5 6.8a.1.1 0 0 1 .1-.1l4.5-8.1v-.2c-.6-.9-1.1-1.7-1.7-2.6a4.74 4.74 0 0 0-1-1 4.671 4.671 0 0 0-1-.5c-.3-.1-.6-.1-.9-.2a3.722 3.722 0 0 0-1.8.2 4.2 4.2 0 0 0-1.4.9 2.651 2.651 0 0 0-.5.6c-1.2 2.2-2.5 4.5-3.7 6.7a.1.1 0 0 1-.1.1c2.5 1.5 5 2.8 7.5 4.2Z"/><path d="m45.7 75.3-9.8-5.4 1.2-2.2c1.1-1.9 2.1-3.9 3.2-5.8.286-.467.66-.874 1.1-1.2a4.42 4.42 0 0 1 2.4-1.1c.596-.1 1.204-.1 1.8 0 .27-.01.54.023.8.1l8.7.1h1.2c.168.023.335.057.5.1h.2a3.536 3.536 0 0 1 2.5 1.8c.5.8 1 1.7 1.5 2.5l.4.7 4-2.3.5.6-.1.3-5.2 9.4a.723.723 0 0 1-.6.4c-.7 0-1.4.1-2.1.1l-9.4.5-.5-.2-.8-.4 5-2.9-2-3.4-4.5 8.3Zm-7.3-6.1 6.6 3.6 4.2-7.6-1.6-2.5a3.45 3.45 0 0 0-.8-.9 2.471 2.471 0 0 0-.9-.4l-.9-.2a2.622 2.622 0 0 0-1.5.2 2.55 2.55 0 0 0-1.2.8c-.2.2-.3.4-.4.5-.9 1.7-1.9 3.3-2.8 5l-.7 1.5Zm12.5 3.2-.6.3h1l-.4-.3Zm-2-10.9c.1.2.3.4.4.6l.5.8c.3.5.6.9.9 1.4.8 1.3 1.6 2.6 2.3 4l1.7 2.9-1.1.6 2.9-.1c.8 0 1.6-.1 2.5-.1l2.6-4.7-1.1.6-.3-.4.4-.4-.4.3-1.6-2.8-.9-1.5a1.779 1.779 0 0 0-1.1-.8h-.1c-.2 0-.3-.1-.5-.1h-1.5l-5.6-.3Z" fill-rule="nonzero"/><path d="M55.6 79.5c0 1.8-.1 3.6-.1 5.4h5.3c-1.6-2.8-3.3-5.7-4.9-8.5 2.9-1.7 5.8-3.4 8.8-5.1a.1.1 0 0 0 .1.1c1.4 2.5 2.8 4.9 4.2 7.4a4.466 4.466 0 0 1-.3 4.7c-2.1 3.1-3.9 6.2-5.9 9.3a3.47 3.47 0 0 1-2.6 1.6h-4.6c0 1.5 0 3.1-.1 4.7-.1-.1-.1-.1-.1-.2-1.7-3-3.5-6.1-5.2-9.1v-.2c1.8-3.3 3.6-6.6 5.4-10v-.1Zm-.9 3.3-.1.1-3.6 6.6v.2l3.6 6.3a.1.1 0 0 0 .1.1v-2.5h5a2.509 2.509 0 0 0 2.2-1.2c1.4-2.3 2.9-4.6 4.3-6.8a.1.1 0 0 1 .1-.1h-.1c-.39.115-.793.182-1.2.2H54.5c.166-.957.233-1.929.2-2.9Zm2.3-6.1c.305.478.573.98.8 1.5 1.3 2.2 2.6 4.4 3.8 6.7a.1.1 0 0 0 .1.1h3.1c.451.007.898-.096 1.3-.3a3.529 3.529 0 0 0 1.8-1.6c.5-.769.713-1.69.6-2.6a4.951 4.951 0 0 0-.4-1.3c-1.3-2.2-2.5-4.4-3.8-6.6a.1.1 0 0 0-.1-.1c-2.2 1.4-4.7 2.8-7.2 4.2Z"/><path d="m56 100.8-.9-1.5.4-.3-.5.2v-.1L49.7 90a.438.438 0 0 1 0-.6l5.7-10.5.4.2.4.1-.1.3-.1 4.9h3.9l-4.7-8.2 9.6-5.6.3.5 1.2 2c1 1.8 2.1 3.6 3.1 5.4.297.556.468 1.17.5 1.8a5.021 5.021 0 0 1-.9 3.5c-1.3 1.9-2.5 3.8-3.7 5.7-.8 1.2-1.5 2.4-2.3 3.6a3.7 3.7 0 0 1-2.9 1.8H56v5.9Zm-4.4-11.2 2.7 4.7v-1.2h5.5c.738.024 1.43-.36 1.8-1 1.1-1.7 2.1-3.4 3.2-5l.6-.9h-.8l-10.5-.1v-1.3l-2.5 4.8Zm15.9-5.1c-.114.124-.25.225-.4.3l.2-.1c.1-.1.1-.2.2-.2Zm-5.4-.1H65a3.6 3.6 0 0 0 1.1-.2 3.638 3.638 0 0 0 1.6-1.4c.486-.662.7-1.485.6-2.3a8.111 8.111 0 0 0-.3-1.1l-2.7-4.8-.9-1.5-6.5 3.8 4.2 7.5Zm-7.2-2 .2.1v-.9l-.4.8h.2Z" fill-rule="nonzero"/><path d="M86.9 142H12.1L7.9 26H91l-4.1 116Zm-71-4H83l3.9-108H12.1l3.8 108Z" fill-rule="nonzero"/><path d="m19.251 28.09 3.998-.125 3.502 112.045-3.998.125zM37.025 103.248l3.999-.084.75 35.492-4 .084z"/><g><path d="M36 30h4v23h-4z"/></g><g><path d="M53 116h4v22h-4z"/></g><g><path d="M55 30h4v25h-4z"/></g><g><path d="m71.005 139.974 2.24-111.978 3.999.08-2.24 111.978z"/></g><g fill-rule="nonzero"><path d="M99 21H0V7h44V0h13v7h42v14ZM4 17h91v-6H53V4h-5v7H4v6Z"/></g></g></svg>