<svg xmlns="http://www.w3.org/2000/svg" width="129" height="107"><g fill="none" fill-rule="evenodd"><g fill="#000" fill-rule="nonzero"><path d="M124.551 106.6h-120a4.475 4.475 0 0 1-3.5-1.6 4.887 4.887 0 0 1-1-3.7l11.2-66.2a5.6 5.6 0 0 1 5.5-4.5h95.5a5.768 5.768 0 0 1 5.5 4.5l11.2 66.2a4.416 4.416 0 0 1-1 3.7 4.132 4.132 0 0 1-3.4 1.6Zm-107.7-72a1.615 1.615 0 0 0-1.5 1.2L4.051 102c-.026.173.01.35.1.5a.52.52 0 0 0 .4.2h120c.2 0 .4-.1.4-.2a.749.749 0 0 0 .1-.5l-11.2-66.2a1.615 1.615 0 0 0-1.5-1.2h-95.5Z"/><path d="M93.551 80.6h-58v-27h58v27Zm-54-4h50v-19h-50v19Z"/></g><path d="M92.851 32c0-16.569-13.431-30-30-30-16.569 0-30 13.431-30 30" stroke="#000" stroke-width="4"/><path d="M85.351 32c0-12.426-10.074-22.5-22.5-22.5s-22.5 10.074-22.5 22.5" stroke="#000" stroke-width="4"/></g></svg>