<svg xmlns="http://www.w3.org/2000/svg" width="295" height="291"><g fill="#010101" fill-rule="nonzero"><path d="m167.31 95.27-106 7-23 48.34 112.93-4.4 16.07-50.94Zm-12.65 23.51-33.06 1.29 5.4-17.15 33.32-2.19-5.66 18.05Zm-70.57 2.75 6.35-16.2 31.22-2.06-5.37 17-32.2 1.26Zm30.6 3.81-5.52 17.46-33.93 1.33 6.86-17.52 32.59-1.27ZM64.57 107l20.36-1.33-6.29 16.05-21.46.84L64.57 107Zm-9.81 20.66 21.89-.86-6.86 17.52-23.38.91 8.35-17.57Zm59.72 14.92 5.52-17.45 33.07-1.28-5.5 17.46-33.09 1.27ZM150.71 152.86l-113.29 4.41-30 60 126-1.36 17.29-63.05ZM138 180.31l-37.21.89 7-21.66 36.33-1.42-6.12 22.19Zm-73.72 1.77 8.41-21.17 29.76-1.16-7 21.58-31.17.75Zm29.59 4.29-8.08 25.05-33.31.37 9.79-24.66 31.6-.76ZM40.6 162.16l26.63-1-8.38 21.09-28.63.69 10.38-20.78ZM27.66 188l29.15-.7-9.76 24.58-31.51.35L27.66 188ZM91 211.37l8.1-25.13 37.45-.9-7.02 25.66-38.53.37ZM214.65.74a2.6 2.6 0 0 0-3.36 1.11l-12.52 23.07a2.59 2.59 0 0 0-.11 2.16l.49 1.13 1.09.36c.19.06 2.15.78 17.23 7.7v21.56l-13.76 7.95v-5.87h-.21V58.5h-15V183h-39l-8.2 34H241v-34h-37.5V87.94l15-8.5L239.25 67V46.28l.93.45c7.31 3.52 12.54 6 15.56 7.24a9.7 9.7 0 0 0 3.45 1.05 2.1 2.1 0 0 0 1.2-.34l7.94-3 10.13 4.71c.335.156.7.238 1.07.24a2.59 2.59 0 0 0 2.17-1.2l4.77-7.46a2.56 2.56 0 0 0 .29-2.12l-.32-1 6.43-2.41a2.57 2.57 0 0 0 1.67-2.31V38.4L214.65.74ZM236 212h-88.33l5.8-24H236v24ZM193.5 63.5h5v119h-5v-119ZM278.63 51l-3.56-1.66 5.15-1.92.54.25-2.13 3.33Zm-64-44.74 71.15 33.57-5.52 2.08C272.81 38.42 255 30 212.56 10l2.07-3.74Zm19.65 57.92-18.3 11-12.24 6.95V71.56l18.76-10.84V39.84l11.78 5.3v19.04Zm24.69-14.28c-1.28-.49-5.19-2.16-16.59-7.66-1.14-.55-1.14-.55-3.27-1.52l-15.79-7.26c-8.94-4.11-15.39-7-18.83-8.52l5.71-10.52c35.75 16.89 54.13 25.54 63.52 29.94l-14.75 5.54ZM160 240.27c-7.274 0-13.17 5.896-13.17 13.17s5.896 13.17 13.17 13.17 13.17-5.896 13.17-13.17c-.011-7.269-5.901-13.159-13.17-13.17Zm0 21.34a8.17 8.17 0 1 1 8.17-8.17 8.19 8.19 0 0 1-8.17 8.17Z"/><path d="M160 229.61c-13.16 0-23.83 10.67-23.83 23.83 0 13.16 10.67 23.83 23.83 23.83 13.16 0 23.83-10.67 23.83-23.83-.017-13.154-10.676-23.813-23.83-23.83Zm0 42.66c-10.4 0-18.83-8.43-18.83-18.83 0-10.4 8.43-18.83 18.83-18.83 10.4 0 18.83 8.43 18.83 18.83-.017 10.393-8.437 18.813-18.83 18.83Z"/><path d="M160.84 219.37a34.59 34.59 0 0 0-17.84 4.41H.5v20h10.58v22H19v19.72H9.15v5h24.69v-5H24v-19.69h8v-22h96.13a42.8 42.8 0 0 0-1.92 9.55l5 .24a39.49 39.49 0 0 1 4.37-14.87c5.13-9.51 13.65-14.32 25.32-14.32 26.22 0 26.69 27.89 26.7 29.08h5a44.09 44.09 0 0 0-1.46-9.66h19.28v22h7.94v19.67h-9.84v5h24.68v-5h-9.9v-19.69h7.94v-22h9.7v-20h-63.29c-4.27-2.71-9.75-4.44-16.81-4.44ZM27 260.81H16.08v-16.16H27v16.16Zm103-22H5.5v-10h131.15a35 35 0 0 0-6.65 9.96v.04Zm96.25 22h-10.89v-16.16h10.88l.01 16.16Zm9.7-22h-46.48a33.66 33.66 0 0 0-6-10h52.42l.06 10Z"/></g></svg>