<svg xmlns="http://www.w3.org/2000/svg" width="961" height="892"><g fill="#000" fill-rule="evenodd"><path d="M35.811 708.559h889.08V36.23H35.811v672.329ZM.5 743.879h959.72V.91H.5v742.969ZM105.939 856.18h232.434v-41.184H105.939v41.184Zm-35.32 35.32h303.074V779.676H70.619V891.5ZM609.579 856.18h232.434v-41.184H609.579v41.184Zm-35.32 35.32h303.074V779.676H574.259V891.5Z"/><path d="M722.171 273.405h84.786v-84.786h-84.786v84.786Zm-35.32 35.32h155.426V153.299H686.851v155.426ZM722.171 453.547h84.786v-84.786h-84.786v84.786Zm-35.32 35.32h155.426V333.441H686.851v155.426ZM542.02 453.547h84.777v-84.786H542.02v84.786Zm-35.32 35.32h155.417V333.441H506.7v155.426ZM542.02 273.405h84.777v-84.786H542.02v84.786Zm-35.32 35.32h155.417V153.299H506.7v155.426ZM209.771 478.045h133.774V387.97h90.076V254.195h-90.076V164.12H209.771v90.075h-90.076V387.97h90.076v90.075"/></g></svg>