<svg xmlns="http://www.w3.org/2000/svg" width="958" height="764"><g fill="#000" fill-rule="evenodd"><path d="M592.72 346.195c-53.653-28.526-185.378-98.942-505.184-271.034l22.171-46.504 543.23 291.788-60.217 25.75Zm-9.441 77.031L535.298 397.8l57.789-24.501a7301.725 7301.725 0 0 0 14.061 7.44l-23.869 42.487Zm-146.327-10.42c-7.842-3.325-34.944-16.126-123.697-64.873l-.001-.001c-8.37-4.594-8.37-4.594-23.844-12.655-14.95-7.788-46.061-23.993-115.735-60.518-72.267-37.886-123.331-64.131-145.606-74.867L77.296 96.638c289.479 155.772 424.682 228.141 487.379 261.55l-127.723 54.618Zm-174.419 49.866-138.012 94.111-98.505 63.675V513.196l52.092-34.313 85.336-56.043V300.946l99.089 50.841v110.885Zm422.189-152.131L110.511 2.112a12.497 12.497 0 0 0-9.82-.854c-3.243 1.076-5.934 3.472-7.343 6.49L1.721 199.933l-.045.096a12.636 12.636 0 0 0-.251 10.069 12.547 12.547 0 0 0 7.17 6.986c2.151.808 18.345 7.781 131.084 66.704v126.227l-74.63 49.013-39.033 25.711v-63.058H2.25v242.437l135.295-87.455L286.299 475.23V360.455c7.737 4.038 9.104 4.789 15.516 8.308 51.329 28.193 88.719 48.061 111.131 59.052 15.122 7.416 20.669 9.66 24.531 9.66 1.346 0 2.489-.273 3.76-.695l4.946-1.648.24-.529 59.532-25.457 75.909 40.227a12.372 12.372 0 0 0 5.841 1.464c4.384-.001 8.644-2.31 10.9-6.371l34.887-62.096a12.63 12.63 0 0 0 1.085-9.893 12.556 12.556 0 0 0-6.273-7.482c-.873-.45-3.2-1.656-8.589-4.496l63.964-27.353c4.42-1.869 7.413-6.185 7.626-10.997.213-4.814-2.391-9.381-6.583-11.608ZM774.857 393.827c0-22.027-3.61-43.224-10.256-63.041l-20.466 14.173a174.429 174.429 0 0 1 6.956 48.868c0 72.451-44.276 134.753-107.19 161.278l3.029 24.381c74.719-28.577 127.927-101.016 127.927-185.659"/><path d="M867.164 393.827c0-40.998-8.43-80.698-24.453-117.132l-20.065 13.896c13.359 31.778 20.752 66.659 20.752 103.236 0 119.718-79.129 221.302-187.833 255.196l2.983 24.023c46.143-13.546 88.43-38.495 123.383-73.449 54.964-54.963 85.233-128.041 85.233-205.77"/><path d="M845.648 663.314c34.998-34.997 62.475-75.754 81.671-121.138 19.877-46.993 29.955-96.905 29.955-148.349 0-51.444-10.078-101.357-29.955-148.351a383.262 383.262 0 0 0-9.547-20.76l-19.841 13.74c22.789 47.005 35.578 99.722 35.578 155.371 0 165.734-113.414 305.473-266.706 345.696l2.963 23.854a378.757 378.757 0 0 0 54.745-18.392c45.384-19.196 86.14-46.674 121.137-81.671"/></g></svg>