<?xml version="1.0" encoding="utf-8"?>
<!-- Generator: Adobe Illustrator 23.0.2, SVG Export Plug-In . SVG Version: 6.00 Build 0)  -->
<svg version="1.1" id="Layer_1" xmlns="http://www.w3.org/2000/svg" xmlns:xlink="http://www.w3.org/1999/xlink" x="0px" y="0px"
	 viewBox="0 0 336 245" style="enable-background:new 0 0 336 245;" xml:space="preserve">
<style type="text/css">
	.st0{fill-rule:evenodd;clip-rule:evenodd;}
</style>
<g>
	<g>
		<path d="M215.6,244.3c-29.3,0-57.3-10.6-79.3-30.3l6-6.7c44.7,39.9,112.1,37.1,153.4-6.4C338.4,156,337.2,84,293,40.6
			C271.8,19.7,243.7,8.5,213.9,9c-29.9,0.5-57.6,12.7-78.1,34.3l-6.5-6.2C151.4,13.8,181.4,0.6,213.7,0
			c32.3-0.6,62.7,11.6,85.6,34.1c22.9,22.6,35.9,53.1,36.4,85.9c0.6,32.8-11.3,63.8-33.5,87.1c-21.5,22.6-50.4,35.8-81.6,37.1
			C219,244.3,217.3,244.3,215.6,244.3z"/>
	</g>
	<g>
		<path class="st0" d="M0,121.3l11.5-0.5l11.5-0.4l23-0.9l23-0.8l23-0.6c7.7-0.2,15.4-0.6,23-0.9s15.4-0.3,23,0s15.4,0.7,23,1.3
			s15.4,1.4,23,2.7v0.9c-7.7,1.3-15.4,2.1-23,2.7s-15.4,1.1-23,1.3s-15.4,0.2-23,0s-15.4-0.7-23-0.8l-23-0.6l-23-0.7l-23-0.9
			l-11.5-0.4L0,122.2V121.3z M41,88.7c11-0.7,22.1-1.2,33.2-1.8l16.6-0.7l16.6-0.6c5.5-0.2,11.1-0.6,16.6-0.8
			c5.5-0.3,11.1-0.3,16.6,0s11.1,0.7,16.6,1.3c5.6,0.6,11.1,1.5,16.6,2.7v0.9c-5.5,1.2-11,2.1-16.6,2.7c-5.5,0.6-11.1,1.1-16.6,1.3
			c-5.5,0.3-11.1,0.3-16.6,0c-5.5-0.3-11.1-0.7-16.6-0.9l-16.6-0.6l-16.6-0.8C63.1,90.9,52,90.3,41,89.6V88.7z M41,153.9
			c11.1-0.7,22.2-1.3,33.3-1.8l16.7-0.7l16.7-0.6c5.6-0.2,11.1-0.6,16.7-0.9c5.6-0.3,11.1-0.3,16.7-0.1c5.6,0.3,11.1,0.7,16.7,1.3
			c5.6,0.6,11.2,1.5,16.7,2.7v0.9c-5.5,1.2-11.1,2.1-16.7,2.7c-5.5,0.6-11.1,1.1-16.7,1.3c-5.6,0.3-11.1,0.3-16.7,0
			c-5.6-0.3-11.1-0.7-16.7-0.9L91,157.4l-16.7-0.7c-11.1-0.6-22.2-1.1-33.3-1.8L41,153.9z M102.9,186.6c5.3-0.7,10.5-1.3,15.8-1.8
			l7.9-0.7l7.9-0.6c2.6-0.2,5.3-0.6,7.9-0.9c2.6-0.3,5.3-0.3,7.9-0.1c2.6,0.3,5.3,0.7,7.9,1.3c2.7,0.6,5.4,1.5,7.9,2.7v0.9
			c-2.5,1.2-5.2,2.1-7.9,2.7c-2.6,0.6-5.2,1.1-7.9,1.3c-2.6,0.3-5.3,0.3-7.9,0c-2.6-0.3-5.3-0.7-7.9-0.9l-7.9-0.6l-7.9-0.8
			c-5.3-0.6-10.5-1.1-15.8-1.8V186.6L102.9,186.6z M104.5,58.2c5.3-0.7,10.5-1.3,15.8-1.8l7.9-0.7l7.9-0.6c2.6-0.2,5.3-0.5,7.9-0.9
			c2.6-0.3,5.3-0.3,7.9,0c2.7,0.3,5.3,0.7,7.9,1.3c2.7,0.6,5.4,1.5,7.9,2.7v0.9c-2.5,1.2-5.2,2.1-7.9,2.7c-2.6,0.6-5.2,1.1-7.9,1.3
			c-2.6,0.3-5.3,0.3-7.9,0c-2.6-0.3-5.3-0.7-7.9-0.8l-7.9-0.6l-7.9-0.7c-5.3-0.5-10.5-1.1-15.8-1.8
			C104.5,59.2,104.5,58.2,104.5,58.2z M209.7,117.8l58.9-80.5l-46.1,88.4L209.7,117.8z"/>
	</g>
	<g>
		<path d="M218.6,233.8h-5v-8.5h5V233.8z M325.6,124.8h-8.4v-5h8.4V124.8z M218.6,18.9h-5v-8.6h5V18.9z"/>
	</g>
</g>
</svg>
