<svg xmlns="http://www.w3.org/2000/svg" width="955" height="835"><g fill="#000" fill-rule="evenodd"><path d="M211.021 267.073c0 10.013-4.841 18.131-10.812 18.131-5.971 0-10.812-8.118-10.812-18.131 0-10.015 4.841-18.132 10.812-18.132 5.971 0 10.812 8.117 10.812 18.132M300.984 267.073c0 10.013-4.84 18.131-10.811 18.131-5.972 0-10.812-8.118-10.812-18.131 0-10.015 4.84-18.132 10.812-18.132 5.971 0 10.811 8.117 10.811 18.132M631.312 208.831c0 10.014-4.84 18.132-10.812 18.132-5.971 0-10.811-8.118-10.811-18.132 0-10.014 4.84-18.132 10.811-18.132 5.972 0 10.812 8.118 10.812 18.132M721.276 208.831c0 10.014-4.841 18.132-10.812 18.132-5.972 0-10.811-8.118-10.811-18.132 0-10.014 4.839-18.132 10.811-18.132 5.971 0 10.812 8.118 10.812 18.132"/><path d="M736.872 529.113c-2.784 4.173-6.785 5.146-8.927 5.359-2.135.21-6.257.039-9.804-3.508l-32.228-32.235 83.454-73.017 21.856 21.864-54.351 81.537Zm-71.394-49.617-77.489-67.798v-26.727c22.538 14.325 49.19 22.53 77.489 22.53 28.307 0 54.967-8.205 77.497-22.53v26.727l-77.497 67.798Zm-13.261 69.917.853-19.193 12.408-12.418 12.417 12.418.852 19.193h-26.53Zm-39.394-18.44c-3.546 3.538-7.661 3.709-9.803 3.499-2.135-.213-6.144-1.194-8.919-5.359l-54.36-81.537 21.856-21.864 83.462 73.025-32.236 32.236Zm-61.947-246.856c-2.467-13.406-14.884-23.152-28.283-22.156-1.055.074-2.15 0-3.246-.225-5.551-1.138-9.739-6.997-9.739-13.628v-10.022c0-6.485 4.326-12.312 9.853-13.285 4.658-.821 9.121.891 11.954 4.577 2.557 3.343 5.982 5.73 9.885 6.907 5.713 1.728 12.027.713 16.872-2.711 8.732-6.16 16.442-13.691 22.903-22.383 4.602-6.192 3.311-14.942-2.873-19.543-6.192-4.602-14.941-3.312-19.543 2.873a73.451 73.451 0 0 1-10.875 11.752 40.007 40.007 0 0 0-15.135-8.084c-3.587-13.749-9.983-43.192-9.983-78.706 0-21.385 6.598-36.416 19.6-44.668 10.144-6.437 20.882-6.687 20.882-6.697 3.562 0 7.036-1.403 9.625-3.853.34-.318 34.678-32.18 93.46-35.353 53.815-2.906 95.359 10.68 120.145 39.295 24.972 28.837 33.29 73.115 24.266 128.538-3.741-.131-7.832.146-11.914.828l-13.116-31.506c-2.677-6.427-9.69-9.901-16.433-8.139-1.291.333-130.249 33.029-184.317-34.29-4.836-6.014-13.626-6.978-19.639-2.15-6.014 4.837-6.98 13.626-2.142 19.632 55.219 68.755 164.789 53.798 201.252 46.502l10.152 24.363c4.36 10.47 15.519 16.192 26.515 13.602 4.521-1.062 8.83-1.087 10.453-.77 5.649 1.127 9.902 6.76 9.902 13.106v10.185c0 6.631-4.18 12.49-9.731 13.628-1.104.225-2.2.299-3.247.218-13.406-.973-25.824 8.757-28.291 22.163-10.152 55.31-58.352 95.451-114.61 95.451-56.249 0-104.449-40.141-114.602-95.451ZM894.69 464.83l-76.044-29.33-38.769-38.768a13.888 13.888 0 0 0-8.975-4.049v-30.856c18.267-19.479 31.285-44.151 36.528-71.946a40.293 40.293 0 0 0 9.795-.781c18.577-3.806 32.074-21.044 32.074-40.992v-10.176c0-11.54-4.691-22.132-12.304-29.703 12.327-67.07 2.167-121.728-29.508-158.306C776.85 14.54 727.482-2.373 664.732 1.027c-57.971 3.125-95.401 29.808-107.249 39.564-6.494.771-17.554 3.051-28.746 9.762-15.509 9.308-33.997 28.853-33.997 69.13 0 35.142 5.617 64.48 9.682 81.125-13.626 6.638-22.74 21.027-22.74 37.478v10.022c0 19.948 13.48 37.186 32.057 40.992 3.247.658 6.541.926 9.795.773 5.244 27.795 18.261 52.467 36.53 71.954v30.847a13.89 13.89 0 0 0-8.977 4.058l-38.768 38.76-76.044 29.338a91.876 91.876 0 0 0-18.674 9.772c-6.38 4.333-8.035 13.018-3.701 19.396 2.703 3.984 7.093 6.118 11.565 6.118 2.694 0 5.429-.778 7.832-2.409a65.223 65.223 0 0 1 13.025-6.826l70.582-27.22 53.953 80.938c6.688 10.039 17.409 16.476 29.412 17.661 1.331.136 2.67.194 3.993.194 6.955 0 13.69-1.827 19.656-5.195l-11.582 262.656c-.34 7.702 5.633 14.228 13.343 14.569.203.008.414.008.625.008 7.426 0 13.61-5.851 13.942-13.351l10.745-243.803h28.982l10.745 243.803c.333 7.5 6.517 13.351 13.942 13.351.22 0 .422 0 .625-.008 7.71-.341 13.684-6.867 13.343-14.569l-11.581-262.656c5.973 3.368 12.709 5.195 19.655 5.195 1.324 0 2.655-.058 3.993-.194 12.003-1.185 22.724-7.622 29.413-17.661l53.961-80.938 70.565 27.22a64.39 64.39 0 0 1 25.127 17.506l-48.281 48.29c-17.449 17.439-27.049 40.633-27.049 65.297v198.559c0 7.71 6.249 13.967 13.959 13.967s13.967-6.257 13.967-13.967V621.974c0-17.206 6.695-33.387 18.86-45.553l42.381-42.372a64.284 64.284 0 0 1 2.223 19.518l-10.818 266.398c-.308 7.71 5.682 14.211 13.392 14.519.194.008.381.016.576.016 7.449 0 13.641-5.885 13.942-13.4l10.826-266.405c1.575-39.522-22.147-75.631-59.049-89.865Z"/><path d="m307.533 590.29-37.348-31.86 57.832-57.832 21.523 21.513-42.007 68.179Zm-57.905-50.802-51.356-51.357v-28.893a144.065 144.065 0 0 0 51.356 9.447c18 0 35.327-3.344 51.356-9.447v28.893l-51.356 51.357Zm-57.906 50.802-41.998-68.179 21.514-21.513 57.833 57.832-37.349 31.86Zm-56.704-244.986c-2.467-13.408-14.9-23.155-28.275-22.166a11.948 11.948 0 0 1-3.644-.307c-5.332-1.258-9.349-7.086-9.349-13.537v-10.031c0-6.477 4.325-12.312 9.852-13.286 4.659-.82 9.13.9 11.955 4.578 2.556 3.342 5.981 5.738 9.885 6.915 5.721 1.727 12.035.713 16.88-2.711 8.595-6.071 16.199-13.465 22.603-21.995 4.625-6.158 3.384-14.916-2.784-19.542-6.176-4.633-14.925-3.385-19.551 2.783a74.431 74.431 0 0 1-10.664 11.453 39.934 39.934 0 0 0-21.068-9.277c-2.671-10.517-4.042-21.272-4.042-32.098 0-75.144 64.066-136.279 142.812-136.279 78.747 0 142.812 61.135 142.812 136.279 0 10.802-1.355 21.531-4.026 32.033-3.676.293-7.409.901-10.867 1.793l-10.501-8.627c-5.267-4.341-11.914-6.517-18.634-6.111-20.524 1.209-125.647 3.985-179.576-60.558-4.942-5.917-13.748-6.705-19.672-1.762-5.917 4.942-6.704 13.749-1.761 19.673 26.603 31.829 65.615 53.353 115.957 63.975 38.541 8.133 72.797 7.345 86.229 6.574l16.377 13.473c4.513 3.699 10.827 4.228 15.875 1.29 2.37-1.29 10.307-2.524 13.764-1.835 5.648 1.128 9.901 6.761 9.901 13.115v10.178c0 6.46-4.018 12.279-9.341 13.537a11.948 11.948 0 0 1-3.644.307c-13.375-.973-25.816 8.758-28.283 22.166-10.161 55.308-58.352 95.449-114.61 95.449-56.25 0-104.457-40.141-114.61-95.449Zm114.61-316.782c29.703 0 54.773 18.952 62.182 44.629-19.275-7.28-40.254-11.272-62.182-11.272-21.929 0-42.908 3.992-62.191 11.272 7.418-25.677 32.479-44.629 62.191-44.629Zm193.721 509.495-68.188-29.767-37.275-37.276c-2.491-2.499-5.705-3.837-8.968-4.049v-21.97c31.855-20.93 55.171-54.22 62.654-93.897a40.219 40.219 0 0 0 11.02-1.048c17.871-4.229 30.84-21.352 30.84-40.716v-10.178c0-14.153-7.02-26.879-17.895-34.345a157.927 157.927 0 0 0 4.828-38.688c0-57.856-31.269-108.815-78.413-138.072-.495-48.28-41.707-87.422-92.333-87.422-50.609 0-91.82 39.142-92.323 87.422-47.136 29.257-78.414 80.224-78.414 138.072 0 13.01 1.623 25.938 4.804 38.575-10.875 7.434-17.862 20.216-17.862 34.605v10.031c0 19.364 12.96 36.487 30.839 40.716a39.928 39.928 0 0 0 11.013 1.048c7.491 39.677 30.808 72.967 62.662 93.897v21.97a13.904 13.904 0 0 0-8.976 4.049l-37.275 37.276-68.189 29.767C21.212 553.153-1.025 588.741.582 626.569l8.245 194.557c.317 7.499 6.501 13.374 13.943 13.374.203 0 .398-.008.6-.016 7.71-.325 13.692-6.834 13.367-14.543l-8.254-194.556c-.527-12.54 2.727-24.706 8.855-35.174l36.658 43.986c11.573 13.894 17.96 31.514 17.96 49.604v136.732c0 7.71 6.249 13.967 13.959 13.967s13.968-6.257 13.968-13.967V683.801c0-24.607-8.676-48.581-24.438-67.484l-38.971-46.761c3.32-2.282 6.842-4.302 10.599-5.949l59.424-25.938 41.998 68.163a26.994 26.994 0 0 0 18.812 12.522 26.951 26.951 0 0 0 21.743-6.142l26.619-22.7v231.021c0 7.71 6.249 13.967 13.959 13.967s13.967-6.257 13.967-13.967V589.512l26.603 22.709a27.038 27.038 0 0 0 17.538 6.466c1.396 0 2.808-.113 4.212-.333a26.946 26.946 0 0 0 18.812-12.514l41.999-68.171 59.423 25.938c3.758 1.647 7.288 3.667 10.599 5.949l-38.971 46.761c-15.753 18.903-24.428 42.877-24.428 67.484v136.732c0 7.718 6.249 13.967 13.959 13.967 7.709 0 13.966-6.249 13.966-13.967V683.801a77.636 77.636 0 0 1 17.961-49.604l36.65-43.986c6.127 10.468 9.39 22.634 8.854 35.174l-8.237 194.556c-.333 7.709 5.648 14.218 13.35 14.543.211.016.406.016.601.016 7.442 0 13.626-5.866 13.951-13.374l8.245-194.557c1.599-37.82-20.63-73.416-55.333-88.552Z"/><path d="M256.167 401.522c-3.508 0-7.105-.148-10.784-.444-28.16-2.276-62.337-14.611-73.174-33.784-2.853-5.049-1.074-11.454 3.975-14.308 5.049-2.852 11.454-1.074 14.307 3.975 5.324 9.419 29.331 20.983 56.583 23.184 24.507 1.978 44.404-4.177 54.596-16.892 3.627-4.525 10.235-5.253 14.759-1.626 4.525 3.627 5.253 10.235 1.626 14.76-13.131 16.383-34.86 25.135-61.888 25.135M676.042 334.735c-3.508 0-7.103-.147-10.782-.444-28.16-2.275-62.338-14.61-73.175-33.784-2.853-5.048-1.074-11.454 3.974-14.307 5.051-2.854 11.455-1.075 14.307 3.974 5.325 9.419 29.332 20.983 56.584 23.185 24.497 1.978 44.404-4.177 54.595-16.893 3.627-4.525 10.235-5.253 14.761-1.626 4.524 3.627 5.252 10.236 1.626 14.76-13.133 16.383-34.862 25.135-61.89 25.135"/></g></svg>