<?xml version="1.0" encoding="utf-8"?>
<!-- Generator: Adobe Illustrator 23.0.2, SVG Export Plug-In . SVG Version: 6.00 Build 0)  -->
<svg version="1.1" id="Layer_1" xmlns="http://www.w3.org/2000/svg" xmlns:xlink="http://www.w3.org/1999/xlink" x="0px" y="0px"
	 viewBox="0 0 309 246" style="enable-background:new 0 0 309 246;" xml:space="preserve">
<style type="text/css">
	.st0{fill-rule:evenodd;clip-rule:evenodd;}
	.st1{fill:#FFFFFF;}
</style>
<g transform="translate(6 6)">
	<g>
		<path d="M303,178.9H-6V-6h309V178.9z M6,166.9h285V6H6V166.9z"/>
	</g>
	<g>
		<path d="M175.9,209.4h-54.7v-39.5h54.7V209.4z M127.1,203.4h42.7v-27.5h-42.7V203.4z"/>
	</g>
	<g>
		<path d="M281.7,239.5H15.3l34.4-36.6h199.7L281.7,239.5z M31.5,232.5h234.8l-20-22.6H52.7L31.5,232.5z"/>
	</g>
	<g>
		<path d="M148.5,136.9c-25,0-48.5-5.1-66.3-14.2c-18.4-9.5-28.5-22.3-28.5-36.2s10.1-26.7,28.5-36.2C100,41.1,123.5,36,148.5,36
			c25,0,48.5,5.1,66.3,14.2c18.4,9.5,28.5,22.3,28.5,36.2s-10.1,26.7-28.5,36.2C197,131.8,173.5,136.9,148.5,136.9z M148.5,42
			c-24,0-46.6,4.8-63.5,13.6C68.7,64,59.7,75,59.7,86.5c0,11.5,9,22.4,25.3,30.9c16.9,8.7,39.5,13.6,63.5,13.6
			c24,0,46.6-4.8,63.5-13.6c16.3-8.4,25.3-19.4,25.3-30.9c0-11.5-9-22.4-25.3-30.9C195.1,46.9,172.5,42,148.5,42z"/>
	</g>
	<g>
		<path d="M148.8,134.9c-25.6,0-46.4-21.7-46.4-48.4S123.3,38,148.8,38c25.6,0,46.4,21.7,46.4,48.4S174.4,134.9,148.8,134.9z
			 M148.8,40c-24.5,0-44.4,20.8-44.4,46.4s19.9,46.4,44.4,46.4c24.5,0,44.4-20.8,44.4-46.4S173.3,40,148.8,40z"/>
	</g>
	<g>
		<path class="st0" d="M148.8,96.4c-5.1,0.2-9.4-3.7-9.7-8.8c-0.2-5.1,3.7-9.4,8.8-9.7c5.1-0.2,9.4,3.7,9.7,8.8c0,0.1,0,0.3,0,0.4
			C157.8,92.1,153.8,96.3,148.8,96.4z"/>
	</g>
	<g>
		<path class="st1" d="M148.8,78.4c4.8-0.2,9,3.5,9.2,8.3c0.2,4.8-3.5,9-8.3,9.2c-4.8,0.2-9-3.5-9.2-8.3c0-0.1,0-0.3,0-0.4
			C140.4,82.4,144.1,78.5,148.8,78.4z M148.8,77.4c-5.4-0.2-9.9,4-10.2,9.3c-0.2,5.4,4,9.9,9.3,10.2c5.4,0.2,9.9-4,10.2-9.3
			c0-0.1,0-0.3,0-0.4C158.3,81.9,154.1,77.5,148.8,77.4z"/>
	</g>
</g>
</svg>
