<svg xmlns="http://www.w3.org/2000/svg" width="38.964" height="41.303" viewBox="0 0 38.964 41.303">
  <g id="rec" transform="translate(-14.5)">
    <g id="Group_794" data-name="Group 794" transform="translate(14.5 0)">
      <path id="Path_375" data-name="Path 375" d="M271.446,362.825a.807.807,0,0,0,0-1.613h-2.978a.807.807,0,0,0-.807.807v6.476a.807.807,0,0,0,.807.807h2.978a.807.807,0,1,0,0-1.613h-2.171v-1.624h2.171a.807.807,0,1,0,0-1.613h-2.171v-1.625Z" transform="translate(-247.239 -332.073)" fill="#db2527"/>
      <path id="Path_376" data-name="Path 376" d="M178.783,363.638a2.429,2.429,0,0,0-2.427-2.426h-2.394a.807.807,0,0,0-.807.807v6.476a.807.807,0,0,0,1.613,0v-2.431h1.089l1.4,2.792a.807.807,0,0,0,1.443-.722l-1.184-2.365A2.427,2.427,0,0,0,178.783,363.638Zm-4.015-.812h1.587a.814.814,0,0,1,.814.812.824.824,0,0,1-.814.812h-1.587Z" transform="translate(-160.356 -332.073)" fill="#db2527"/>
      <path id="Path_377" data-name="Path 377" d="M355.094,363.536a.807.807,0,0,0,1.14-1.141,4.044,4.044,0,1,0,0,5.722.807.807,0,1,0-1.14-1.141,2.439,2.439,0,0,1-3.444,0,2.43,2.43,0,0,1,0-3.439A2.44,2.44,0,0,1,355.094,363.536Z" transform="translate(-322.314 -332.073)" fill="#db2527"/>
      <path id="Path_378" data-name="Path 378" d="M76.961,375.668a2.877,2.877,0,1,0,2.878,2.878A2.883,2.883,0,0,0,76.961,375.668Zm0,4.141a1.264,1.264,0,1,1,1.265-1.263A1.266,1.266,0,0,1,76.961,379.809Z" transform="translate(-69.275 -345.363)" fill="#db2527"/>
      <path id="Path_379" data-name="Path 379" d="M48.159,0H19.806A5.31,5.31,0,0,0,14.5,5.3v6.656a.807.807,0,1,0,1.613,0V5.3a3.7,3.7,0,0,1,3.693-3.689H48.159A3.694,3.694,0,0,1,51.85,5.3V25.064H16.113V19.205a.807.807,0,1,0-1.613,0V36a5.31,5.31,0,0,0,5.306,5.3H48.159a5.309,5.309,0,0,0,5.3-5.3V5.3a5.309,5.309,0,0,0-5.3-5.3Zm0,39.69H19.806A3.7,3.7,0,0,1,16.113,36V26.677H51.85V36A3.694,3.694,0,0,1,48.159,39.69Z" transform="translate(-14.5 0)" fill="#db2527"/>
      <path id="Path_380" data-name="Path 380" d="M112.985,77.555h-13.3A2.287,2.287,0,0,0,97.4,79.839v9.6a2.286,2.286,0,0,0,2.285,2.282h13.3a2.286,2.286,0,0,0,2.285-2.282V88.288l4.876,1.951a3.651,3.651,0,0,0,1.308.311,1.481,1.481,0,0,0,.85-.244,2.023,2.023,0,0,0,.686-1.733V80.7a2.027,2.027,0,0,0-.685-1.736,2.33,2.33,0,0,0-2.158.067l-4.876,1.951V79.839A2.287,2.287,0,0,0,112.985,77.555Zm0,12.549h-13.3a.671.671,0,0,1-.672-.668v-9.6a.68.68,0,0,1,.672-.671h13.3a.68.68,0,0,1,.672.671v9.6A.671.671,0,0,1,112.985,90.1Zm7.761-9.573a2.921,2.921,0,0,1,.609-.187,2.37,2.37,0,0,1,.022.357v7.873a2.343,2.343,0,0,1-.022.355,2.905,2.905,0,0,1-.609-.187l-5.476-2.191V82.722Z" transform="translate(-90.714 -71.299)" fill="#db2527"/>
      <path id="Path_381" data-name="Path 381" d="M156.271,187h-8.212a.807.807,0,1,0,0,1.613h8.212a.807.807,0,1,0,0-1.613Z" transform="translate(-136.543 -171.913)" fill="#db2527"/>
      <path id="Path_382" data-name="Path 382" d="M150.044,129.283h0a.807.807,0,1,0-.809-.807A.806.806,0,0,0,150.046,129.283Z" transform="translate(-138.368 -117.371)" fill="#db2527"/>
      <path id="Path_383" data-name="Path 383" d="M15.307,184.759a.808.808,0,1,0-.807-.809v0A.8.8,0,0,0,15.307,184.759Z" transform="translate(-14.5 -168.369)" fill="#db2527"/>
    </g>
  </g>
</svg>
