<svg xmlns="http://www.w3.org/2000/svg" width="116.979" height="114.6" viewBox="0 0 116.979 114.6">
  <g id="Group_839" data-name="Group 839" transform="translate(-789.661 -729)">
    <path id="Union_1" data-name="Union 1" d="M58.489,114.544l-.054.056v-.113L16.706,70.776,0,16.8,58.436.031V0l.054.015L58.543,0V.031L116.979,16.8,100.273,70.776,58.543,114.488v.113Z" transform="translate(789.661 729)" fill="#db2527"/>
    <path id="Path_277" data-name="Path 277" d="M25.729,22.741l-1.494,3.652L64.517,42.107l5.09-3.154L25.729,22.741ZM44.155,7.746l34.97,9.406c-3.1,11.675-6.252,23.35-9.351,34.97L44.155,78.571l-19.2-19.809,16.821-6.75c.111-1.273.166-2.988.277-4.261h0l8.3,3.154,9.96-6.2L22.686,30.045l-3.209,8.134,16.212,7.248a9.4,9.4,0,0,1-.055,4.205c-2.711.443-8.134,1.937-12.228,2.656h0c-3.154.553-6.2,1.107-8.3,1.439l.166-.055-3.818.664.166.719.055.111L12.5,56.6l5.2,5.367h0L43.325,88.364l.941.941.941-.941L76.026,56.6l.83-1.439.055-.111Q82.223,35.3,87.479,15.493l1-3.6L44.155,0,0,11.841l1,3.6L10.07,49.3l7.47-1.107L9.185,17.153l34.97-9.406Z" transform="translate(804.685 739.873)" fill="#fff"/>
  </g>
</svg>